<?xml version="1.0" encoding="utf-8"?>
<!-- Generator: Adobe Illustrator 27.5.0, SVG Export Plug-In . SVG Version: 6.00 Build 0)  -->
<svg version="1.1" xmlns="http://www.w3.org/2000/svg" xmlns:xlink="http://www.w3.org/1999/xlink" x="0px" y="0px"
	 viewBox="0 0 750 500" style="enable-background:new 0 0 750 500;" xml:space="preserve">
<g id="Background_complete">
	<g>
		<g>
			<g>
				<g>
					<g>
						<g>
							<path style="fill:#E0E0E0;" d="M673.734,339.783H492.988c-3.232,0-5.862-2.63-5.862-5.862V70.647
								c0-3.232,2.63-5.862,5.862-5.862h180.746c3.232,0,5.862,2.629,5.862,5.862v263.273
								C679.596,337.153,676.966,339.783,673.734,339.783z M492.988,65.035c-3.095,0-5.612,2.518-5.612,5.612v263.273
								c0,3.095,2.518,5.612,5.612,5.612h180.746c3.095,0,5.612-2.518,5.612-5.612V70.647c0-3.094-2.518-5.612-5.612-5.612H492.988z
								"/>
						</g>
					</g>
					<g>
						<g>
							<path style="fill:#E0E0E0;" d="M465.306,339.783H284.56c-3.232,0-5.862-2.63-5.862-5.862V70.647
								c0-3.232,2.629-5.862,5.862-5.862h180.747c3.232,0,5.862,2.629,5.862,5.862v263.273
								C471.168,337.153,468.538,339.783,465.306,339.783z M284.56,65.035c-3.094,0-5.612,2.518-5.612,5.612v263.273
								c0,3.095,2.518,5.612,5.612,5.612h180.747c3.095,0,5.612-2.518,5.612-5.612V70.647c0-3.094-2.518-5.612-5.612-5.612H284.56z"
								/>
						</g>
					</g>
				</g>
				<g>
					<g>
						<g>
							<path style="fill:#E0E0E0;" d="M257.012,339.783H76.266c-3.232,0-5.862-2.63-5.862-5.862V70.647
								c0-3.232,2.629-5.862,5.862-5.862h180.746c3.232,0,5.862,2.629,5.862,5.862v263.273
								C262.875,337.153,260.245,339.783,257.012,339.783z M76.266,65.035c-3.094,0-5.612,2.518-5.612,5.612v263.273
								c0,3.095,2.518,5.612,5.612,5.612h180.746c3.095,0,5.612-2.518,5.612-5.612V70.647c0-3.094-2.518-5.612-5.612-5.612H76.266z"
								/>
						</g>
					</g>
				</g>
			</g>
			<g>
				<g>
					<rect y="400.852" style="fill:#E0E0E0;" width="750" height="0.12"/>
				</g>
			</g>
		</g>
		<g>
			<rect x="653.626" y="430.228" style="fill:#EBEBEB;" width="55.729" height="0.421"/>
			<rect x="495.044" y="434.794" style="fill:#EBEBEB;" width="14.627" height="0.421"/>
			<rect x="40.645" y="417.431" style="fill:#EBEBEB;" width="72.674" height="0.421"/>
			<rect x="128.299" y="417.431" style="fill:#EBEBEB;" width="10.656" height="0.421"/>
			<rect x="173.586" y="424.535" style="fill:#EBEBEB;" width="157.613" height="0.421"/>
		</g>
	</g>
	<g>
		<rect x="259.279" y="223.384" style="fill:#E6E6E6;" width="49.979" height="16.806"/>
		<rect x="248.02" y="240.19" style="fill:#F0F0F0;" width="49.979" height="16.806"/>
	</g>
	<g>
		<rect x="544.236" y="209.203" style="fill:#E6E6E6;" width="49.979" height="16.806"/>
		<rect x="532.976" y="226.009" style="fill:#F0F0F0;" width="49.979" height="16.806"/>
	</g>
	<g>
		<rect x="512.654" y="64.785" style="fill:#F0F0F0;" width="49.979" height="16.806"/>
		<rect x="501.394" y="81.591" style="fill:#E6E6E6;" width="49.979" height="16.806"/>
	</g>
	<g>
		<rect x="50.817" y="290.064" style="fill:#F0F0F0;" width="49.979" height="16.806"/>
		<rect x="39.557" y="306.87" style="fill:#E6E6E6;" width="49.979" height="16.806"/>
	</g>
	<g>
		<rect x="645.235" y="347.355" style="fill:#F0F0F0;" width="49.979" height="16.806"/>
		<rect x="633.976" y="364.161" style="fill:#E6E6E6;" width="49.979" height="16.806"/>
	</g>
	<g>
		<rect x="70.176" y="61.536" style="fill:#F0F0F0;" width="49.979" height="16.806"/>
		<rect x="58.917" y="78.342" style="fill:#E6E6E6;" width="49.979" height="16.806"/>
	</g>
	<g>
		<rect x="281.821" y="309.078" style="fill:#F0F0F0;" width="49.979" height="16.806"/>
	</g>
	<g>
		<rect x="638.582" y="87.097" style="fill:#F0F0F0;" width="49.979" height="16.806"/>
	</g>
	<g>
		<rect x="184.484" y="364.161" style="fill:#F0F0F0;" width="49.979" height="16.806"/>
	</g>
</g>
<g id="Background_simple" style="display:none;">
	<g style="display:inline;">
		<path style="fill:#407BFF;" d="M264.218,67.863c-28.794,2.847-56.559,8.907-81.184,18.414
			c-29.024,11.204-58.679,28.659-49.92,51.49c16.171,42.149,93.743,42.917,78.255,71.257c-17.544,32.102-5.779,69.757,72.945,80.228
			c149.524,19.889,330.277-96.484,279.51-160.43C532.218,89.011,417.105,52.749,264.218,67.863z"/>
		<path style="opacity:0.9;fill:#FFFFFF;" d="M264.218,67.863c-28.794,2.847-56.559,8.907-81.184,18.414
			c-29.024,11.204-58.679,28.659-49.92,51.49c16.171,42.149,93.743,42.917,78.255,71.257c-17.544,32.102-5.779,69.757,72.945,80.228
			c149.524,19.889,330.277-96.484,279.51-160.43C532.218,89.011,417.105,52.749,264.218,67.863z"/>
	</g>
</g>
<g id="Shadow">
	<g>
		<g>
			<path style="fill:#F5F5F5;" d="M677.598,459.225c0,3.325-135.478,6.021-302.598,6.021s-302.598-2.695-302.598-6.021
				c0-3.325,135.478-6.021,302.598-6.021S677.598,455.9,677.598,459.225z"/>
		</g>
	</g>
</g>
<g id="Speech_Bubble_2">
	<g>
		<g>
			<g>
				<path style="fill:#407BFF;" d="M681.856,157.572c6.745-9.748,4.311-23.118-5.437-29.863c-9.748-6.745-23.118-4.311-29.863,5.437
					c-5.207,7.525-4.923,17.198-0.047,24.326l-1.544,6.259l6.746-0.939c0.097,0.07,0.183,0.149,0.282,0.217
					C661.741,169.754,675.111,167.32,681.856,157.572z"/>
			</g>
			<path style="fill:none;stroke:#407BFF;stroke-width:0.5;stroke-linecap:round;stroke-linejoin:round;stroke-miterlimit:10;" d="
				M681.347,128.062c5.25,4.597,7.937,11.951,6.887,18.85"/>
			<path style="fill:none;stroke:#407BFF;stroke-width:0.5;stroke-linecap:round;stroke-linejoin:round;stroke-miterlimit:10;" d="
				M687.641,150.059c-0.082,1.061-0.385,2.105-0.886,3.044"/>
		</g>
		<g style="opacity:0.7;">
			<g>
				<path style="fill:#FFFFFF;" d="M681.856,157.572c6.745-9.748,4.311-23.118-5.437-29.863c-9.748-6.745-23.118-4.311-29.863,5.437
					c-5.207,7.525-4.923,17.198-0.047,24.326l-1.544,6.259l6.746-0.939c0.097,0.07,0.183,0.149,0.282,0.217
					C661.741,169.754,675.111,167.32,681.856,157.572z"/>
			</g>
		</g>
		<g>
			<path style="fill:#407BFF;" d="M661.581,156.831c-0.608-0.585-0.911-1.297-0.911-2.137c0-0.839,0.298-1.54,0.894-2.103
				c0.596-0.563,1.358-0.845,2.285-0.845c0.927,0,1.689,0.282,2.285,0.845c0.596,0.563,0.894,1.264,0.894,2.103
				c0,0.84-0.304,1.552-0.91,2.137c-0.608,0.585-1.364,0.877-2.269,0.877C662.944,157.709,662.188,157.416,661.581,156.831z
				 M660.769,134.26h6.16l-1.027,15.136h-4.107L660.769,134.26z"/>
		</g>
	</g>
</g>
<g id="Speech_Bubble_1">
	<g>
		<g>
			<g>
				<g>
					<path style="fill:#407BFF;" d="M190.473,108.756c-10.055-7.419-24.22-5.283-31.64,4.772c-5.728,7.762-5.738,17.963-0.829,25.63
						l-1.828,6.545l7.138-0.773c0.1,0.077,0.188,0.163,0.29,0.238c10.055,7.419,24.22,5.283,31.64-4.772
						C202.664,130.34,200.528,116.175,190.473,108.756z"/>
					<path style="opacity:0.7;fill:#FFFFFF;" d="M190.473,108.756c-10.055-7.419-24.22-5.283-31.64,4.772
						c-5.728,7.762-5.738,17.963-0.829,25.63l-1.828,6.545l7.138-0.773c0.1,0.077,0.188,0.163,0.29,0.238
						c10.055,7.419,24.22,5.283,31.64-4.772C202.664,130.34,200.528,116.175,190.473,108.756z"/>
					
						<path style="fill:none;stroke:#407BFF;stroke-width:0.5;stroke-linecap:round;stroke-linejoin:round;stroke-miterlimit:10;" d="
						M192.904,107.292c6.081,4.14,9.832,11.493,9.614,18.846"/>
					
						<path style="fill:none;stroke:#407BFF;stroke-width:0.5;stroke-linecap:round;stroke-linejoin:round;stroke-miterlimit:10;" d="
						M202.299,129.506c0.05,1.121-0.134,2.252-0.538,3.299"/>
				</g>
			</g>
		</g>
		<g>
			<path style="fill:#407BFF;" d="M175.57,128.072c0.381-0.647,0.936-1.361,1.666-2.142c0.535-0.572,0.928-1.052,1.179-1.442
				c0.252-0.39,0.377-0.833,0.377-1.329c0-0.704-0.239-1.261-0.717-1.671s-1.114-0.614-1.908-0.614c-0.762,0-1.439,0.186-2.03,0.557
				c-0.592,0.371-1.09,0.89-1.495,1.556l-2.942-2.028c0.681-1.219,1.6-2.162,2.76-2.828c1.158-0.667,2.532-1,4.121-1
				c1.864,0,3.359,0.467,4.485,1.4c1.126,0.933,1.689,2.228,1.689,3.885c0,0.781-0.109,1.466-0.328,2.056
				c-0.219,0.59-0.486,1.091-0.802,1.499c-0.315,0.41-0.725,0.881-1.227,1.415c-0.6,0.628-1.037,1.157-1.313,1.585
				c-0.276,0.428-0.414,0.947-0.414,1.557H175C175,129.538,175.19,128.72,175.57,128.072z M175.182,136.73
				c-0.446-0.452-0.669-1.001-0.669-1.65c0-0.647,0.219-1.189,0.656-1.624c0.438-0.434,0.997-0.652,1.677-0.652
				c0.681,0,1.24,0.218,1.677,0.652c0.438,0.435,0.656,0.976,0.656,1.624c0,0.648-0.222,1.198-0.668,1.65
				c-0.446,0.452-1.001,0.677-1.666,0.677C176.183,137.407,175.627,137.182,175.182,136.73z"/>
		</g>
	</g>
</g>
<g id="Plant">
	<g>
		<g>
			<path style="fill:#407BFF;" d="M283.658,385.209c3.115-3.839,9.134-6.4,15.742-7.633c-0.518,1.89-0.13,3.634,0.988,4.062
				c1.246,0.478,2.918-0.861,3.734-2.99c0.23-0.601,0.358-1.196,0.409-1.758c6.663-0.542,13.326,0.225,17.772,2.359
				c0,0-4.354,3.924-9.285,14.242c-0.151-0.005-0.303-0.01-0.457-0.009c-3.191,0.032-5.763,1.573-5.745,3.442
				c0.014,1.365,1.409,2.524,3.403,3.039c-0.259,0.661-0.518,1.333-0.776,2.031c-4.697,12.714-17.23,3.523-17.117-5.179
				C292.327,396.817,276.679,393.811,283.658,385.209z"/>
			<g>
				<path style="fill:#407BFF;" d="M268.218,368.798c-3.838-4.144-10.892-6.613-18.518-7.525c0.732,2.116,0.42,4.133-0.822,4.705
					c-1.385,0.638-3.391-0.763-4.481-3.129c-0.308-0.668-0.498-1.336-0.597-1.973c-7.637-0.119-15.175,1.253-20.085,4.019
					c0,0,5.257,4.148,11.65,15.542c0.172-0.018,0.345-0.034,0.521-0.044c3.641-0.202,6.688,1.362,6.807,3.494
					c0.086,1.557-1.418,2.983-3.652,3.72c0.345,0.734,0.69,1.481,1.036,2.257c6.307,14.143,19.906,2.727,19.126-7.185
					C259.203,382.68,276.818,378.083,268.218,368.798z"/>
				<g>
					<g>
						<g>
							<path style="fill:#407BFF;" d="M258.898,365.693c1.63-7.955,8.461-16.25,17.158-23.055c0.677,3.148,2.565,5.395,4.518,5.172
								c2.179-0.249,3.601-3.466,3.177-7.187c-0.12-1.05-0.384-2.014-0.737-2.871c9.3-5.839,19.591-9.772,27.69-10.032
								c0,0-3.371,9.018-2.738,27.793c-0.225,0.107-0.45,0.214-0.674,0.334c-4.626,2.466-7.207,6.66-5.763,9.37
								c1.055,1.979,3.967,2.611,7.263,1.851c0.123,1.159,0.255,2.335,0.409,3.547c2.789,22.089-22.441,18.192-28.871,5.425
								C280.33,376.039,255.246,383.519,258.898,365.693z"/>
							<path style="opacity:0.2;fill:#FFFFFF;" d="M258.898,365.693c1.63-7.955,8.461-16.25,17.158-23.055
								c0.677,3.148,2.565,5.395,4.518,5.172c2.179-0.249,3.601-3.466,3.177-7.187c-0.12-1.05-0.384-2.014-0.737-2.871
								c9.3-5.839,19.591-9.772,27.69-10.032c0,0-3.371,9.018-2.738,27.793c-0.225,0.107-0.45,0.214-0.674,0.334
								c-4.626,2.466-7.207,6.66-5.763,9.37c1.055,1.979,3.967,2.611,7.263,1.851c0.123,1.159,0.255,2.335,0.409,3.547
								c2.789,22.089-22.441,18.192-28.871,5.425C280.33,376.039,255.246,383.519,258.898,365.693z"/>
							<g>
								<path style="fill:#263238;" d="M297.779,342.693c0.23-0.256,0.354-0.387,0.354-0.387
									C298.013,342.435,297.899,342.565,297.779,342.693z"/>
							</g>
						</g>
					</g>
				</g>
				<path style="fill:none;stroke:#263238;stroke-width:0.5;stroke-miterlimit:10;" d="M277.075,416.088
					c-4.202-23.356,2.075-48.397,16.798-67.01"/>
				<path style="fill:none;stroke:#263238;stroke-width:0.5;stroke-linecap:round;stroke-linejoin:round;stroke-miterlimit:10;" d="
					M245.908,371.203c17.659,9.169,27.414,28.854,30.026,36.51c0,0,21.62-15.687,32.045-22.366"/>
				<g>
					<polygon style="fill:#263238;" points="302.991,423.552 249.902,423.552 249.922,413.827 302.936,413.827 					"/>
					<polygon style="fill:#263238;" points="253.748,420.381 262.043,454.887 292.589,454.887 299.985,420.381 					"/>
					<polygon style="opacity:0.3;" points="254.51,423.552 299.305,423.552 298.487,427.371 255.307,427.371 					"/>
				</g>
			</g>
		</g>
		<path style="fill:none;stroke:#407BFF;stroke-width:0.5;stroke-linecap:round;stroke-linejoin:round;stroke-miterlimit:10;" d="
			M252.862,411.832c1.574,0,3.148,0,4.722,0"/>
		<path style="fill:none;stroke:#407BFF;stroke-width:0.5;stroke-linecap:round;stroke-linejoin:round;stroke-miterlimit:10;" d="
			M259.754,411.832c4.308,0,8.616,0,12.924,0"/>
	</g>
</g>
<g id="Sign">
	<g>
		<g style="opacity:0.3;">
			<path d="M280.129,134.708c-1.85,2.199-4.075,3.861-6.673,4.986c-2.6,1.125-5.474,1.687-8.623,1.687
				c-3.149,0-5.974-0.388-8.473-1.162c-2.501-0.775-4.999-2.075-7.498-3.899c-2.501-1.825-5.35-4.412-8.548-7.761
				c-4.399-0.899-8.274-2.611-11.623-5.136c-3.35-2.523-5.961-5.635-7.835-9.336c-1.874-3.699-2.812-7.772-2.812-12.222
				c0-5.249,1.274-9.96,3.824-14.135c2.549-4.173,6.074-7.435,10.573-9.785c4.499-2.349,9.572-3.524,15.222-3.524
				c5.648,0,10.722,1.175,15.221,3.524c4.499,2.35,8.023,5.612,10.573,9.785c2.549,4.175,3.824,8.886,3.824,14.135
				c0,5.749-1.526,10.835-4.574,15.259c-3.05,4.424-7.174,7.686-12.372,9.785c0.75,0.8,1.511,1.361,2.287,1.687
				c0.774,0.324,1.637,0.487,2.587,0.487c2.598,0,5.024-1.124,7.273-3.374L280.129,134.708z M241.7,90.356
				c-1.775,1.076-3.187,2.6-4.236,4.574c-1.05,1.975-1.575,4.287-1.575,6.936c0,2.65,0.525,4.962,1.575,6.936
				c1.05,1.976,2.462,3.5,4.236,4.574c1.774,1.076,3.761,1.612,5.962,1.612c2.199,0,4.186-0.536,5.961-1.612
				c1.774-1.074,3.187-2.599,4.236-4.574c1.05-1.974,1.575-4.286,1.575-6.936c0-2.649-0.525-4.961-1.575-6.936
				c-1.05-1.974-2.463-3.498-4.236-4.574c-1.775-1.074-3.762-1.612-5.961-1.612C245.461,88.744,243.474,89.282,241.7,90.356z"/>
			<path d="M290.026,122.786c-4.499-4.349-6.748-10.448-6.748-18.296V75.621h17.696v28.344c0,3.85,0.687,6.649,2.062,8.398
				c1.374,1.751,3.361,2.625,5.961,2.625c2.599,0,4.586-0.874,5.962-2.625c1.374-1.749,2.062-4.548,2.062-8.398V75.621h17.397
				v28.869c0,7.848-2.25,13.947-6.749,18.296s-10.773,6.523-18.821,6.523C300.799,129.309,294.526,127.135,290.026,122.786z"/>
			<path d="M342.514,75.621h17.696v52.489h-17.696V75.621z"/>
			<path d="M415.098,114.388v13.722h-48.214v-10.873l23.995-27.894h-23.245V75.621h46.265v10.873l-23.995,27.894H415.098z"/>
		</g>
		<g style="opacity:0.3;">
			<path d="M292.816,152.394c-1.203-0.285-2.19-0.667-2.963-1.148l1.662-3.76c0.729,0.423,1.545,0.762,2.449,1.016
				c0.904,0.256,1.771,0.383,2.602,0.383c0.714,0,1.225-0.069,1.531-0.208c0.306-0.139,0.459-0.346,0.459-0.623
				c0-0.32-0.2-0.561-0.601-0.721c-0.401-0.161-1.06-0.335-1.978-0.525c-1.18-0.248-2.164-0.514-2.951-0.798
				c-0.787-0.284-1.472-0.751-2.055-1.399c-0.583-0.648-0.875-1.527-0.875-2.634c0-0.962,0.269-1.837,0.809-2.624
				c0.539-0.787,1.344-1.406,2.416-1.858c1.071-0.452,2.372-0.678,3.903-0.678c1.049,0,2.08,0.113,3.093,0.339
				c1.013,0.226,1.906,0.557,2.678,0.994l-1.552,3.739c-1.502-0.758-2.923-1.137-4.264-1.137c-1.326,0-1.989,0.321-1.989,0.962
				c0,0.306,0.197,0.536,0.59,0.688c0.394,0.153,1.042,0.317,1.946,0.492c1.166,0.219,2.149,0.47,2.951,0.755
				c0.801,0.284,1.497,0.747,2.088,1.388c0.591,0.641,0.886,1.516,0.886,2.623c0,0.962-0.27,1.833-0.809,2.613
				c-0.539,0.78-1.345,1.399-2.416,1.859c-1.071,0.459-2.372,0.688-3.902,0.688C295.254,152.82,294.019,152.678,292.816,152.394z"/>
			<path d="M320.265,137.167v15.304h-5.16v-5.64h-4.766v5.64h-5.16v-15.304h5.16v5.422h4.766v-5.422H320.265z"/>
			<path d="M326.342,151.793c-1.312-0.685-2.339-1.636-3.083-2.853c-0.743-1.217-1.115-2.591-1.115-4.122
				c0-1.53,0.372-2.904,1.115-4.121c0.743-1.217,1.771-2.167,3.083-2.853c1.312-0.685,2.791-1.028,4.438-1.028
				c1.647,0,3.126,0.343,4.439,1.028c1.31,0.686,2.339,1.636,3.082,2.853c0.744,1.217,1.115,2.591,1.115,4.121
				c0,1.53-0.371,2.904-1.115,4.122c-0.742,1.217-1.772,2.168-3.082,2.853c-1.313,0.685-2.792,1.027-4.439,1.027
				C329.133,152.82,327.654,152.478,326.342,151.793z M332.518,148.174c0.517-0.313,0.929-0.758,1.235-1.334
				c0.306-0.576,0.459-1.249,0.459-2.023c0-0.772-0.153-1.446-0.459-2.022c-0.306-0.576-0.718-1.02-1.235-1.334
				c-0.517-0.313-1.097-0.47-1.738-0.47c-0.641,0-1.221,0.157-1.738,0.47c-0.518,0.314-0.929,0.758-1.235,1.334
				c-0.306,0.576-0.459,1.25-0.459,2.022c0,0.773,0.153,1.447,0.459,2.023c0.306,0.576,0.718,1.02,1.235,1.334
				c0.517,0.313,1.097,0.47,1.738,0.47C331.421,148.645,332.001,148.488,332.518,148.174z"/>
			<path d="M365.65,137.167l-4.897,15.304h-5.531l-2.471-8.177l-2.602,8.177h-5.532l-4.897-15.304h5.313l2.666,8.701l2.821-8.701
				h4.743l2.667,8.811l2.82-8.811H365.65z"/>
		</g>
		<g>
			<path style="fill:#407BFF;" d="M280.129,129.963c-1.85,2.199-4.075,3.861-6.673,4.986c-2.6,1.125-5.474,1.687-8.623,1.687
				c-3.149,0-5.974-0.388-8.473-1.162c-2.501-0.775-4.999-2.075-7.498-3.899c-2.501-1.825-5.35-4.412-8.548-7.761
				c-4.399-0.899-8.274-2.611-11.623-5.136c-3.35-2.523-5.961-5.635-7.835-9.335c-1.874-3.699-2.812-7.772-2.812-12.222
				c0-5.249,1.274-9.96,3.824-14.135c2.549-4.173,6.074-7.435,10.573-9.785c4.499-2.349,9.572-3.524,15.222-3.524
				c5.648,0,10.722,1.175,15.221,3.524c4.499,2.35,8.023,5.612,10.573,9.785c2.549,4.175,3.824,8.886,3.824,14.135
				c0,5.749-1.526,10.835-4.574,15.259c-3.05,4.424-7.174,7.686-12.372,9.785c0.75,0.8,1.511,1.361,2.287,1.687
				c0.774,0.324,1.637,0.487,2.587,0.487c2.598,0,5.024-1.124,7.273-3.374L280.129,129.963z M241.7,85.61
				c-1.775,1.076-3.187,2.6-4.236,4.574c-1.05,1.975-1.575,4.287-1.575,6.936c0,2.65,0.525,4.962,1.575,6.936
				c1.05,1.976,2.462,3.5,4.236,4.574c1.774,1.076,3.761,1.612,5.962,1.612c2.199,0,4.186-0.536,5.961-1.612
				c1.774-1.074,3.187-2.598,4.236-4.574c1.05-1.974,1.575-4.286,1.575-6.936c0-2.649-0.525-4.961-1.575-6.936
				c-1.05-1.974-2.463-3.498-4.236-4.574c-1.775-1.074-3.762-1.612-5.961-1.612C245.461,83.998,243.474,84.536,241.7,85.61z"/>
			<path style="fill:#407BFF;" d="M290.026,118.041c-4.499-4.349-6.748-10.448-6.748-18.296V70.876h17.696V99.22
				c0,3.85,0.687,6.649,2.062,8.398c1.374,1.751,3.361,2.625,5.961,2.625c2.599,0,4.586-0.874,5.962-2.625
				c1.374-1.749,2.062-4.548,2.062-8.398V70.876h17.397v28.869c0,7.849-2.25,13.947-6.749,18.296s-10.773,6.523-18.821,6.523
				C300.799,124.564,294.526,122.39,290.026,118.041z"/>
			<path style="fill:#407BFF;" d="M342.514,70.876h17.696v52.489h-17.696V70.876z"/>
			<path style="fill:#407BFF;" d="M415.098,109.643v13.722h-48.214v-10.873l23.995-27.894h-23.245V70.876h46.265v10.873
				l-23.995,27.894H415.098z"/>
		</g>
		<g>
			<path style="fill:#407BFF;" d="M292.816,147.649c-1.203-0.285-2.19-0.667-2.963-1.148l1.662-3.76
				c0.729,0.423,1.545,0.762,2.449,1.016c0.904,0.256,1.771,0.383,2.602,0.383c0.714,0,1.225-0.069,1.531-0.208
				c0.306-0.139,0.459-0.346,0.459-0.623c0-0.32-0.2-0.561-0.601-0.721c-0.401-0.161-1.06-0.335-1.978-0.525
				c-1.18-0.248-2.164-0.514-2.951-0.798c-0.787-0.284-1.472-0.751-2.055-1.399c-0.583-0.648-0.875-1.527-0.875-2.634
				c0-0.962,0.269-1.837,0.809-2.624c0.539-0.787,1.344-1.406,2.416-1.858c1.071-0.452,2.372-0.678,3.903-0.678
				c1.049,0,2.08,0.113,3.093,0.339c1.013,0.226,1.906,0.557,2.678,0.994l-1.552,3.739c-1.502-0.758-2.923-1.137-4.264-1.137
				c-1.326,0-1.989,0.321-1.989,0.962c0,0.306,0.197,0.536,0.59,0.688c0.394,0.153,1.042,0.317,1.946,0.492
				c1.166,0.219,2.149,0.47,2.951,0.755c0.801,0.284,1.497,0.747,2.088,1.388c0.591,0.641,0.886,1.516,0.886,2.623
				c0,0.962-0.27,1.833-0.809,2.613c-0.539,0.78-1.345,1.399-2.416,1.859c-1.071,0.459-2.372,0.688-3.902,0.688
				C295.254,148.075,294.019,147.933,292.816,147.649z"/>
			<path style="fill:#407BFF;" d="M320.265,132.422v15.304h-5.16v-5.64h-4.766v5.64h-5.16v-15.304h5.16v5.422h4.766v-5.422H320.265z
				"/>
			<path style="fill:#407BFF;" d="M326.342,147.048c-1.312-0.685-2.339-1.636-3.083-2.853c-0.743-1.217-1.115-2.591-1.115-4.122
				c0-1.53,0.372-2.904,1.115-4.121c0.743-1.217,1.771-2.167,3.083-2.853c1.312-0.685,2.791-1.028,4.438-1.028
				c1.647,0,3.126,0.343,4.439,1.028c1.31,0.686,2.339,1.636,3.082,2.853c0.744,1.217,1.115,2.591,1.115,4.121
				c0,1.531-0.371,2.905-1.115,4.122c-0.742,1.217-1.772,2.168-3.082,2.853c-1.313,0.685-2.792,1.027-4.439,1.027
				C329.133,148.075,327.654,147.733,326.342,147.048z M332.518,143.43c0.517-0.313,0.929-0.758,1.235-1.334
				s0.459-1.249,0.459-2.023c0-0.772-0.153-1.446-0.459-2.022s-0.718-1.02-1.235-1.334c-0.517-0.313-1.097-0.47-1.738-0.47
				c-0.641,0-1.221,0.157-1.738,0.47c-0.518,0.314-0.929,0.758-1.235,1.334s-0.459,1.25-0.459,2.022
				c0,0.773,0.153,1.447,0.459,2.023s0.718,1.02,1.235,1.334c0.517,0.313,1.097,0.47,1.738,0.47
				C331.421,143.9,332.001,143.743,332.518,143.43z"/>
			<path style="fill:#407BFF;" d="M365.65,132.422l-4.897,15.304h-5.531l-2.471-8.176l-2.602,8.176h-5.532l-4.897-15.304h5.313
				l2.666,8.701l2.821-8.701h4.743l2.667,8.811l2.82-8.811H365.65z"/>
		</g>
		<g style="opacity:0.5;">
			<path style="fill:#FFFFFF;" d="M292.816,147.649c-1.203-0.285-2.19-0.667-2.963-1.148l1.662-3.76
				c0.729,0.423,1.545,0.762,2.449,1.016c0.904,0.256,1.771,0.383,2.602,0.383c0.714,0,1.225-0.069,1.531-0.208
				c0.306-0.139,0.459-0.346,0.459-0.623c0-0.32-0.2-0.561-0.601-0.721c-0.401-0.161-1.06-0.335-1.978-0.525
				c-1.18-0.248-2.164-0.514-2.951-0.798c-0.787-0.284-1.472-0.751-2.055-1.399c-0.583-0.648-0.875-1.527-0.875-2.634
				c0-0.962,0.269-1.837,0.809-2.624c0.539-0.787,1.344-1.406,2.416-1.858c1.071-0.452,2.372-0.678,3.903-0.678
				c1.049,0,2.08,0.113,3.093,0.339c1.013,0.226,1.906,0.557,2.678,0.994l-1.552,3.739c-1.502-0.758-2.923-1.137-4.264-1.137
				c-1.326,0-1.989,0.321-1.989,0.962c0,0.306,0.197,0.536,0.59,0.688c0.394,0.153,1.042,0.317,1.946,0.492
				c1.166,0.219,2.149,0.47,2.951,0.755c0.801,0.284,1.497,0.747,2.088,1.388c0.591,0.641,0.886,1.516,0.886,2.623
				c0,0.962-0.27,1.833-0.809,2.613c-0.539,0.78-1.345,1.399-2.416,1.859c-1.071,0.459-2.372,0.688-3.902,0.688
				C295.254,148.075,294.019,147.933,292.816,147.649z"/>
			<path style="fill:#FFFFFF;" d="M320.265,132.422v15.304h-5.16v-5.64h-4.766v5.64h-5.16v-15.304h5.16v5.422h4.766v-5.422H320.265z
				"/>
			<path style="fill:#FFFFFF;" d="M326.342,147.048c-1.312-0.685-2.339-1.636-3.083-2.853c-0.743-1.217-1.115-2.591-1.115-4.122
				c0-1.53,0.372-2.904,1.115-4.121c0.743-1.217,1.771-2.167,3.083-2.853c1.312-0.685,2.791-1.028,4.438-1.028
				c1.647,0,3.126,0.343,4.439,1.028c1.31,0.686,2.339,1.636,3.082,2.853c0.744,1.217,1.115,2.591,1.115,4.121
				c0,1.531-0.371,2.905-1.115,4.122c-0.742,1.217-1.772,2.168-3.082,2.853c-1.313,0.685-2.792,1.027-4.439,1.027
				C329.133,148.075,327.654,147.733,326.342,147.048z M332.518,143.43c0.517-0.313,0.929-0.758,1.235-1.334
				s0.459-1.249,0.459-2.023c0-0.772-0.153-1.446-0.459-2.022s-0.718-1.02-1.235-1.334c-0.517-0.313-1.097-0.47-1.738-0.47
				c-0.641,0-1.221,0.157-1.738,0.47c-0.518,0.314-0.929,0.758-1.235,1.334s-0.459,1.25-0.459,2.022
				c0,0.773,0.153,1.447,0.459,2.023s0.718,1.02,1.235,1.334c0.517,0.313,1.097,0.47,1.738,0.47
				C331.421,143.9,332.001,143.743,332.518,143.43z"/>
			<path style="fill:#FFFFFF;" d="M365.65,132.422l-4.897,15.304h-5.531l-2.471-8.176l-2.602,8.176h-5.532l-4.897-15.304h5.313
				l2.666,8.701l2.821-8.701h4.743l2.667,8.811l2.82-8.811H365.65z"/>
		</g>
		<g>
			<circle style="fill:#407BFF;" cx="217.32" cy="50.721" r="4.646"/>
			<circle style="opacity:0.4;fill:#FFFFFF;" cx="217.32" cy="50.721" r="4.646"/>
		</g>
		<g>
			<circle style="fill:#407BFF;" cx="237.668" cy="50.721" r="4.646"/>
			<circle style="opacity:0.7;fill:#FFFFFF;" cx="237.668" cy="50.721" r="4.646"/>
		</g>
		<g>
			<circle style="fill:#407BFF;" cx="258.016" cy="50.721" r="4.646"/>
			<circle style="opacity:0.4;fill:#FFFFFF;" cx="258.016" cy="50.721" r="4.646"/>
		</g>
		<g>
			<circle style="fill:#407BFF;" cx="278.364" cy="50.721" r="4.646"/>
			<circle style="opacity:0.7;fill:#FFFFFF;" cx="278.364" cy="50.721" r="4.646"/>
		</g>
		<g>
			<circle style="fill:#407BFF;" cx="298.712" cy="50.721" r="4.646"/>
			<circle style="opacity:0.4;fill:#FFFFFF;" cx="298.712" cy="50.721" r="4.646"/>
		</g>
		<g>
			<circle style="fill:#407BFF;" cx="319.06" cy="50.721" r="4.646"/>
			<circle style="opacity:0.7;fill:#FFFFFF;" cx="319.06" cy="50.721" r="4.646"/>
		</g>
		<g>
			<circle style="fill:#407BFF;" cx="339.408" cy="50.721" r="4.646"/>
			<circle style="opacity:0.4;fill:#FFFFFF;" cx="339.408" cy="50.721" r="4.646"/>
		</g>
		<g>
			<circle style="fill:#407BFF;" cx="359.756" cy="50.721" r="4.646"/>
			<circle style="opacity:0.7;fill:#FFFFFF;" cx="359.756" cy="50.721" r="4.646"/>
		</g>
		<g>
			<circle style="fill:#407BFF;" cx="380.103" cy="50.721" r="4.646"/>
			<circle style="opacity:0.4;fill:#FFFFFF;" cx="380.103" cy="50.721" r="4.646"/>
		</g>
		<g>
			<circle style="fill:#407BFF;" cx="400.452" cy="50.721" r="4.646"/>
			<circle style="opacity:0.7;fill:#FFFFFF;" cx="400.452" cy="50.721" r="4.646"/>
		</g>
		<g>
			<circle style="fill:#407BFF;" cx="420.799" cy="50.721" r="4.646"/>
			<circle style="opacity:0.4;fill:#FFFFFF;" cx="420.799" cy="50.721" r="4.646"/>
		</g>
		<g>
			<circle style="fill:#407BFF;" cx="217.32" cy="166.656" r="4.646"/>
			<circle style="opacity:0.4;fill:#FFFFFF;" cx="217.32" cy="166.656" r="4.646"/>
		</g>
		<g>
			<circle style="fill:#407BFF;" cx="237.668" cy="166.656" r="4.646"/>
			<circle style="opacity:0.7;fill:#FFFFFF;" cx="237.668" cy="166.656" r="4.646"/>
		</g>
		<g>
			<circle style="fill:#407BFF;" cx="258.016" cy="166.656" r="4.646"/>
			<circle style="opacity:0.4;fill:#FFFFFF;" cx="258.016" cy="166.656" r="4.646"/>
		</g>
		<g>
			<circle style="fill:#407BFF;" cx="278.364" cy="166.656" r="4.646"/>
			<circle style="opacity:0.7;fill:#FFFFFF;" cx="278.364" cy="166.656" r="4.646"/>
		</g>
		<g>
			<circle style="fill:#407BFF;" cx="298.712" cy="166.656" r="4.646"/>
			<circle style="opacity:0.4;fill:#FFFFFF;" cx="298.712" cy="166.656" r="4.646"/>
		</g>
		<g>
			<circle style="fill:#407BFF;" cx="319.06" cy="166.656" r="4.646"/>
			<circle style="opacity:0.7;fill:#FFFFFF;" cx="319.06" cy="166.656" r="4.646"/>
		</g>
		<g>
			<circle style="fill:#407BFF;" cx="339.408" cy="166.656" r="4.646"/>
			<circle style="opacity:0.4;fill:#FFFFFF;" cx="339.408" cy="166.656" r="4.646"/>
		</g>
		<g>
			<circle style="fill:#407BFF;" cx="359.756" cy="166.656" r="4.646"/>
			<circle style="opacity:0.7;fill:#FFFFFF;" cx="359.756" cy="166.656" r="4.646"/>
		</g>
		<g>
			<circle style="fill:#407BFF;" cx="380.103" cy="166.656" r="4.646"/>
			<circle style="opacity:0.4;fill:#FFFFFF;" cx="380.103" cy="166.656" r="4.646"/>
		</g>
		<g>
			<circle style="fill:#407BFF;" cx="400.452" cy="166.656" r="4.646"/>
			<circle style="opacity:0.7;fill:#FFFFFF;" cx="400.452" cy="166.656" r="4.646"/>
		</g>
		<g>
			<circle style="fill:#407BFF;" cx="420.799" cy="166.656" r="4.646"/>
			<circle style="opacity:0.4;fill:#FFFFFF;" cx="420.799" cy="166.656" r="4.646"/>
		</g>
	</g>
</g>
<g id="Character_3">
	<g>
		<g>
			<g>
				<g>
					<path style="fill:#263238;" d="M629.34,172.391c0.673,6.808,1.455,14.088,5.87,19.634c3.832,4.814,10.113,7.101,16.152,6.095
						c0.475-0.079,0.273-0.802-0.199-0.723c-6.041,1.006-12.266-1.519-15.861-6.484c-3.877-5.353-4.58-12.143-5.211-18.522
						C630.043,171.915,629.292,171.91,629.34,172.391L629.34,172.391z"/>
				</g>
			</g>
			<g>
				<path style="fill:#263238;" d="M654.849,204.301c-0.445-2.306-2.23-3.879-4.068-4.498c-1.838-0.619-3.775-0.493-5.676-0.63
					c-4.566-0.33-9.251-2.413-12.162-6.806c-2.954-4.459-2.17-10.097-2.478-15.865c-0.306-5.713-0.515-10.842-2.364-17.918
					c-1.141-4.366-8.154-12.571-15.539-9.524l-12.208,6.076c-5.245,7.565-6.481,12.256-8.055,22.057
					c-1.574,9.802,0.742,23.198,4.936,31.72c3.076,6.249,7.654,11.123,12.415,15.43c3.626,3.28,7.679,6.408,12.16,6.47
					c2.68,0.037,5.281-1.036,7.823-2.098c4.023-1.68,8.047-3.359,12.07-5.039c1.893-0.79,3.86-1.636,5.268-3.398
					c1.409-1.762,2.059-4.734,0.916-6.773c1.763-0.761,3.569-1.553,4.994-3.053C654.306,208.95,655.285,206.56,654.849,204.301z"/>
			</g>
			<g>
				<g>
					<path style="fill:#B97964;" d="M624.312,195.271c0,0-3.668,1.805-8.191,5.702c-0.942,0.812-1.98,1.514-3.078,2.098
						c-2.964,1.574-5.666,2.475-6.398,1.046c-0.163-0.314-0.288-0.654-0.38-1.011c-0.621-2.393-0.367-5.757,1.568-7.296
						c2.181-1.736,3.232-3.221,2.839-5.571c-0.206-1.332-0.688-2.707-1.252-4.043l2.518-1.512l8.976-9.059
						C619.887,181.179,619.584,191.988,624.312,195.271z"/>
					<path style="opacity:0.2;" d="M610.744,190.755c2.469-1.466,5.177-4.007,4.853-6.912c-0.145-1.223-0.408-2.382-0.701-3.124
						l-5.014,6.639C610.293,188.428,610.443,189.135,610.744,190.755z"/>
					<path style="fill:#B97964;" d="M622.652,165.412c-0.845,9.223-1.008,13.134-5.767,17.969
						c-7.159,7.274-18.172,4.827-20.068-4.314c-1.707-8.228-0.038-21.927,9.016-25.803
						C614.753,149.445,623.497,156.189,622.652,165.412z"/>
					<path style="fill:#263238;" d="M610.707,168.414c-0.045,0.976-0.574,1.777-1.18,1.79c-0.606,0.012-1.061-0.768-1.016-1.744
						c0.045-0.976,0.574-1.777,1.18-1.79S610.752,167.438,610.707,168.414z"/>
					<path style="fill:#263238;" d="M601.612,168.386c-0.046,0.946-0.573,1.722-1.178,1.735c-0.605,0.012-1.058-0.744-1.012-1.69
						c0.046-0.945,0.573-1.722,1.178-1.735C601.205,166.684,601.658,167.441,601.612,168.386z"/>
					<path style="fill:#263238;" d="M612.631,165.015c-0.117,0.013-0.237-0.021-0.328-0.105c-1.421-1.315-3.021-0.854-3.039-0.848
						c-0.237,0.069-0.477-0.065-0.531-0.307c-0.054-0.242,0.097-0.495,0.337-0.568c0.084-0.025,2.091-0.606,3.854,1.027
						c0.176,0.163,0.179,0.451,0.008,0.643C612.849,164.949,612.741,165.003,612.631,165.015z"/>
					<path style="fill:#263238;" d="M598.553,163.758c-0.093-0.031-0.17-0.1-0.211-0.201c-0.084-0.209,0.019-0.474,0.229-0.592
						c2.108-1.185,3.671-0.284,3.736-0.244c0.186,0.11,0.23,0.372,0.1,0.585c-0.13,0.213-0.386,0.296-0.571,0.187
						c-0.061-0.036-1.284-0.714-2.96,0.228C598.767,163.781,598.651,163.791,598.553,163.758z"/>
					<path style="fill:#AE3228;" d="M604.086,167.937c0,0-1.443,3.452-3.071,5.604c-0.284,0.376-0.108,0.925,0.334,1.088
						c1.139,0.419,2.472,0.04,2.472,0.04L604.086,167.937z"/>
					<path style="fill:#263238;" d="M610.038,166.71l-2.117-0.5C607.921,166.21,609.079,167.789,610.038,166.71z"/>
					<path style="fill:#263238;" d="M600.818,166.719l-2.117-0.5C598.701,166.219,599.859,167.797,600.818,166.719z"/>
					<path d="M605.745,176.516c0.623,1.128,1.163,2.301,1.616,3.508l0.675-0.144c3.01-0.642,4.194-1.936,4.603-3.176
						c0.178-0.607,0.213-1.247,0.1-1.87c-0.055-0.359-0.159-0.709-0.31-1.04c-1.405,1.305-4.16,2.113-5.654,2.49
						C606.144,176.449,605.745,176.516,605.745,176.516z"/>
					<path style="fill:#FFFFFF;" d="M606.774,176.284l0.498,1.018c2.844-0.609,4.758-1.416,5.466-2.467
						c-0.055-0.359-0.159-0.709-0.31-1.04C611.023,175.1,608.268,175.863,606.774,176.284z"/>
					<path style="fill:#DE5753;" d="M608.036,179.88c3.01-0.642,4.193-1.936,4.603-3.176c-1.143,0.268-2.229,0.737-3.209,1.383
						C608.786,178.521,608.297,179.149,608.036,179.88z"/>
				</g>
				<path style="fill:#263238;" d="M596.159,167.704c0,0,4.174-11.617,11.253-13.355c0.318-0.078,4.717,10.049,9.012,12.019
					c0,0,0.966,7.049,2.38,7.54c1.414,0.491,4.971-7.211,4.971-7.211s5.815-12.712-2.352-16.162
					c-8.167-3.45-16.665-3.098-21.728,3.814C594.632,161.261,595.467,165.803,596.159,167.704z"/>
				<path style="fill:#B97964;" d="M625.181,172.928c-1.089,1.891-2.86,3.079-4.483,3.486c-2.441,0.612-3.702-3.313-2.869-5.758
					c0.75-2.202,3.149-3.659,5.525-3.179C625.696,167.95,626.427,170.765,625.181,172.928z"/>
				
					<path style="opacity:0.2;fill:none;stroke:#000000;stroke-width:0.5;stroke-linecap:round;stroke-linejoin:round;stroke-miterlimit:10;" d="
					M620.284,172.437c0.058-0.874,0.475-1.718,1.133-2.295c0.68-0.597,1.854-0.862,2.423-0.825"/>
			</g>
		</g>
		<g>
			<g>
				<path style="fill:#B97964;" d="M586.454,127.95l1.919,42.593l11.505,23.727l-5.676,19.925c0,0-13.604-26.156-17.38-38.775
					c-3.776-12.619,2.183-50.934,2.183-50.934L586.454,127.95z"/>
			</g>
			<g>
				<g>
					<g>
						<g>
							<g>
								<g>
									<g>
										<g>
											<g>
												<path style="fill:#B97964;" d="M585.987,128.46c0,0,3.029-0.656,5.102-2.529c2.085-1.884,3.711-3.469,4.892-5.184
													c1.181-1.715-1.538-1.006-2.909-0.335c-1.37,0.67-2.931,1.416-3.267,0.305c-0.337-1.111,1.901-10.839,1.259-12.325
													c-0.642-1.487-1.496-0.027-1.496-0.027s0.48-2.377-0.41-2.824c-0.231-0.116-0.957-0.011-1.346,1.038
													c-0.874,2.36-2.453,7.408-2.453,7.408c0.096-0.288,1.601-6.658,1.702-7.641c0.132-1.285-0.461-1.959-1.209-2.011
													c-1.064-0.074-3.199,7.76-3.52,8.027c0,0,1.38-4.469,0.421-5.456c-0.959-0.988-1.981,1.778-2.419,4.388
													c-0.401,2.392-1.815,6.981-1.987,9.453c-0.212,3.046,0.33,5.139,2.848,6.501
													C583.713,128.609,585.987,128.46,585.987,128.46z"/>
											</g>
										</g>
									</g>
								</g>
							</g>
						</g>
						
							<path style="opacity:0.3;fill:none;stroke:#000000;stroke-width:0.5;stroke-linecap:round;stroke-linejoin:round;stroke-miterlimit:10;" d="
							M589.566,108.688c-0.432,1.896-0.951,3.771-1.555,5.62"/>
						
							<path style="opacity:0.3;fill:none;stroke:#000000;stroke-width:0.5;stroke-linecap:round;stroke-linejoin:round;stroke-miterlimit:10;" d="
							M581.736,114.079c2.509-0.104,5.045,0.549,7.192,1.853"/>
						
							<path style="opacity:0.3;fill:none;stroke:#000000;stroke-width:0.5;stroke-linecap:round;stroke-linejoin:round;stroke-miterlimit:10;" d="
							M588.655,121.212c-1.021-0.077-2.065,0.213-2.9,0.804c-0.835,0.592-1.454,1.481-1.719,2.47"/>
					</g>
				</g>
			</g>
		</g>
		<g>
			<g>
				<path style="fill:#B97964;" d="M604.564,277.064l19.615,83.389l22.006,73.198l8.449-2.562c0,0-1.633-31.715-7.326-56.025
					c-1.308-5.603-4.54-11.623-5.212-16.155c-0.608-3.968,0.2-6.802-0.254-16.064c-0.536-11.197-2.025-25.989-5.948-36.668
					c0,0,7.701-15.002,0.109-30.057L604.564,277.064z"/>
				<path style="fill:#B97964;" d="M585.276,358.182l0.754,79.739l0.282,8.327l6.102-0.345l2.37-14.529
					c0,0,7.001-27.633,8.491-52.551c0.336-5.739-1.026-12.432-0.391-16.963c0.554-3.977,2.125-6.465,4.35-15.437
					c2.679-10.897,5.449-25.481,4.768-36.85c0,0,11.66-12.177,8.672-28.777l-30.403-8.082L585.276,358.182z"/>
				<g>
					<path style="fill:#263238;" d="M574.24,453.954c1.212-0.72,2.586-1.267,4.057-1.614l0,0c0,0,4.414-3.214,6.698-13.038
						l5.744-1.059c1.974-0.324,4.008,0.307,5.113,1.588c0.153,0.181,0.274,0.376,0.358,0.581c0.261,1.045,0.437,2.101,0.528,3.163
						c0.236,3.609,0.19,7.225-0.136,10.831h-1.074l-0.255-6.803c0-2.311-2.506,0.374-3.221,2.84
						c-0.716,2.466-2.199,5.164-8.88,5.164C575.485,455.633,572.246,455.374,574.24,453.954z"/>
					<path style="fill:#B97964;" d="M586.086,435.779c0,0-1.295,4.492-3.409,9.462c-0.869,2.56-2.38,4.971-4.449,7.1
						c0,0,4.994,0.736,7.21-1.782c2.216-2.517,5.352-11.192,10.414-10.676c-0.38-0.643-0.861-1.25-1.432-1.807
						C593.603,437.16,586.086,435.779,586.086,435.779z"/>
				</g>
				<g>
					<path style="fill:#263238;" d="M641.942,453.411c0.85-1.124,1.917-2.15,3.147-3.026l0,0c0,0,2.874-4.643,1.28-14.602
						l4.919-3.149c1.706-1.046,3.827-1.229,5.334-0.46c0.21,0.109,0.395,0.245,0.551,0.403c0.636,0.869,1.198,1.781,1.683,2.729
						c1.581,3.253,2.905,6.619,3.963,10.08l-0.994,0.405l-2.805-6.203c-0.872-2.14-2.179,1.293-1.911,3.846
						c0.268,2.553-0.086,5.611-6.273,8.134C643.728,454.495,640.632,455.479,641.942,453.411z"/>
					<path style="fill:#B97964;" d="M646.048,432.108c0,0,0.497,4.649,0.416,10.049c0.162,2.699-0.327,5.501-1.439,8.254
						c0,0,4.902-1.204,6.003-4.372c1.101-3.167,0.73-12.384,5.612-13.818c-0.595-0.452-1.269-0.833-2.008-1.133
						C653.53,430.549,646.048,432.108,646.048,432.108z"/>
				</g>
			</g>
			<path style="fill:#263238;" d="M581.898,340.714v1.253c0,0,19.433,5.294,32.3,5.33c12.868,0.036,33.626-4.976,33.626-4.976
				s1.045-43.618-5.536-61.691c-6.554-18-15.865-24.619-15.865-24.619l-34.954,8.551c-3.346,7.276-6.416,21.601-7.584,37.048
				C582.561,313.477,582.237,327.772,581.898,340.714z"/>
			<g>
				<g>
					<g>
						<g>
							<path style="fill:#407BFF;" d="M635.543,221.388l5.085-23.138c-4.016-3.22-17.326-4.93-17.326-4.93l-23.367,0.95
								l-4.112,8.786c0,0-5.874,9.385-6.448,15.683c-0.531,5.825,4.611,22.731,3.732,29.911L591,264.348
								c22.692,16.631,43.594,1.345,43.594,1.345c-1.086-3.022-5.402-7.508-5.94-10.476c0.214-3.814-1.577-6.64,0.775-14.557
								C631.201,234.695,635.563,222.233,635.543,221.388z"/>
						</g>
					</g>
				</g>
			</g>
		</g>
		<g>
			<path style="fill:#263238;" d="M610.48,251.415c-6.421,0-11.627,4.559-11.627,10.183h23.254
				C622.107,255.974,616.901,251.415,610.48,251.415z"/>
			<rect x="538.717" y="261.598" style="fill:#407BFF;" width="140.683" height="45.272"/>
			<rect x="538.717" y="261.598" style="opacity:0.2;enable-background:new    ;" width="140.683" height="45.272"/>
			<g>
				<rect x="559.62" y="268.813" style="fill:#263238;" width="101.719" height="30.842"/>
				<polygon style="fill:#407BFF;" points="557.405,303.814 566.699,455.099 653.443,455.099 661.339,306.87 				"/>
				<polygon style="opacity:0.2;enable-background:new    ;" points="557.405,303.814 566.699,455.099 653.443,455.099 
					661.339,306.87 				"/>
			</g>
			<polygon style="opacity:0.2;enable-background:new    ;" points="557.593,306.87 661.339,306.87 660.865,315.78 558.141,315.78 
							"/>
			<g>
				<path style="fill:#FFFFFF;" d="M597.73,282.496c0.736,0.362,1.319,0.874,1.748,1.538c0.428,0.663,0.642,1.43,0.642,2.3
					c0,0.937-0.234,1.761-0.703,2.472c-0.469,0.709-1.109,1.255-1.918,1.637c-0.811,0.382-1.711,0.572-2.703,0.572
					c-1.969,0-3.509-0.602-4.621-1.807c-1.112-1.206-1.667-2.927-1.667-5.164c0-1.593,0.301-2.96,0.904-4.098
					c0.603-1.138,1.443-2.002,2.522-2.592c1.078-0.589,2.327-0.884,3.747-0.884c0.75,0,1.471,0.084,2.16,0.251
					c0.69,0.167,1.276,0.405,1.758,0.713l-1.205,2.391c-0.697-0.47-1.574-0.704-2.633-0.704c-1.192,0-2.136,0.348-2.833,1.045
					c-0.697,0.697-1.072,1.708-1.125,3.034c0.831-0.831,1.989-1.246,3.476-1.246C596.176,281.954,596.992,282.134,597.73,282.496z
					 M596.313,288.021c0.435-0.374,0.654-0.884,0.654-1.526c0-0.643-0.219-1.156-0.654-1.538c-0.435-0.382-1.015-0.572-1.737-0.572
					c-0.71,0-1.293,0.198-1.748,0.592c-0.456,0.395-0.683,0.902-0.683,1.518c0,0.616,0.221,1.118,0.663,1.506
					c0.441,0.389,1.044,0.583,1.807,0.583C595.312,288.584,595.878,288.397,596.313,288.021z"/>
				<path style="fill:#FFFFFF;" d="M604.218,290.152c-0.911-0.576-1.624-1.41-2.139-2.502c-0.516-1.091-0.774-2.394-0.774-3.908
					c0-1.514,0.258-2.816,0.774-3.908c0.515-1.091,1.228-1.926,2.139-2.501c0.911-0.576,1.949-0.864,3.115-0.864
					c1.165,0,2.203,0.288,3.114,0.864c0.911,0.575,1.623,1.41,2.14,2.501c0.515,1.092,0.773,2.394,0.773,3.908
					c0,1.513-0.258,2.817-0.773,3.908c-0.517,1.092-1.229,1.926-2.14,2.502c-0.911,0.575-1.949,0.863-3.114,0.863
					C606.167,291.015,605.129,290.727,604.218,290.152z M609.352,287.158c0.488-0.737,0.733-1.875,0.733-3.416
					c0-1.54-0.245-2.679-0.733-3.415c-0.49-0.736-1.162-1.106-2.019-1.106c-0.844,0-1.51,0.369-2,1.106
					c-0.489,0.736-0.733,1.875-0.733,3.415c0,1.541,0.245,2.679,0.733,3.416c0.49,0.736,1.156,1.104,2,1.104
					C608.19,288.263,608.862,287.895,609.352,287.158z"/>
				<path style="fill:#FFFFFF;" d="M617.86,290.152c-0.911-0.576-1.624-1.41-2.139-2.502c-0.516-1.091-0.774-2.394-0.774-3.908
					c0-1.514,0.258-2.816,0.774-3.908c0.515-1.091,1.228-1.926,2.139-2.501c0.911-0.576,1.949-0.864,3.115-0.864
					c1.165,0,2.203,0.288,3.114,0.864c0.911,0.575,1.623,1.41,2.14,2.501c0.515,1.092,0.773,2.394,0.773,3.908
					c0,1.513-0.258,2.817-0.773,3.908c-0.517,1.092-1.229,1.926-2.14,2.502c-0.911,0.575-1.949,0.863-3.114,0.863
					C619.809,291.015,618.771,290.727,617.86,290.152z M622.994,287.158c0.489-0.737,0.733-1.875,0.733-3.416
					c0-1.54-0.245-2.679-0.733-3.415c-0.49-0.736-1.162-1.106-2.019-1.106c-0.844,0-1.51,0.369-2,1.106
					c-0.488,0.736-0.733,1.875-0.733,3.415c0,1.541,0.245,2.679,0.733,3.416c0.49,0.736,1.156,1.104,2,1.104
					C621.832,288.263,622.505,287.895,622.994,287.158z"/>
			</g>
			<polygon style="opacity:0.2;fill:#FFFFFF;enable-background:new    ;" points="600.038,268.813 568.001,299.655 581.956,299.655 
				614.501,268.813 			"/>
			<polygon style="opacity:0.2;fill:#FFFFFF;enable-background:new    ;" points="620.05,268.813 588.013,299.655 593.1,299.655 
				625.645,268.813 			"/>
			<polygon style="fill:none;stroke:#407BFF;stroke-miterlimit:10;" points="578.424,327.72 586.056,437.592 637.252,437.592 
				644.22,327.72 			"/>
		</g>
		<g>
			<path style="fill:#B97964;" d="M636.203,195.899c0,0,4.348,0.228,6.875,4.438c1.618,2.697,7.263,20.296,10.821,31.648
				c1.811,5.778,0.478,10.021-4.445,13.546l-25.116,10.975l-6.274-7.611l22.797-13.169c0,0-7.611-22.325-8.67-28.518
				C631.131,201.016,636.203,195.899,636.203,195.899z"/>
			<path style="opacity:0.2;" d="M640.86,235.727c0,0,2.907-0.014,4.696,1.159c0,0-1.015-3.262-5.611-3.872L640.86,235.727z"/>
			<path style="fill:#B97964;" d="M603.224,252.818c0,0,1.52-2.999,3.605-3.984c2.085-0.985,12.727-0.801,12.727-0.801l5.446,7.978
				c0,0-3.091,3.136-3.579,2.138c-1.526-3.122-4.749-4.333-7.076-2.93c0,0-1.183,2.389-2.918,1.902
				c-0.95-0.266,0.111-2.925,0.111-2.925s-1.214,2.856-2.343,2.845c-1.129-0.011-1.049-1.969-1.049-1.969s-1.313,1.773-2.079,1.434
				c-0.766-0.34-0.328-2.2-0.328-2.2s-1.357,1.382-1.97,1.204C601.922,254.974,603.224,252.818,603.224,252.818z"/>
			
				<path style="opacity:0.3;fill:none;stroke:#000000;stroke-width:0.25;stroke-linecap:round;stroke-linejoin:round;stroke-miterlimit:10;" d="
				M611.429,254.772c0.323-0.896,0.956-1.676,1.766-2.177c0.81-0.5,1.792-0.717,2.737-0.604"/>
			
				<path style="opacity:0.3;fill:none;stroke:#000000;stroke-width:0.25;stroke-linecap:round;stroke-linejoin:round;stroke-miterlimit:10;" d="
				M613.295,250.737c-0.945-0.113-1.927,0.104-2.737,0.604c-0.81,0.5-1.444,1.281-1.766,2.177l-0.644,1.702"/>
			
				<path style="opacity:0.3;fill:none;stroke:#000000;stroke-width:0.25;stroke-linecap:round;stroke-linejoin:round;stroke-miterlimit:10;" d="
				M610.829,249.871c-0.945-0.113-1.927,0.104-2.737,0.604c-0.81,0.5-1.443,1.281-1.766,2.177l-0.644,1.702"/>
		</g>
	</g>
</g>
<g id="Character_2">
	<g>
		<g>
			<g>
				<g>
					<g>
						<polygon style="fill:#EBB373;" points="409.575,423.897 401.641,445.311 394.449,442.987 396.93,420.384 						"/>
					</g>
				</g>
			</g>
			<g>
				<g>
					<g>
						<g>
							<g>
								<g>
									<g>
										<g>
											<g>
												<g>
													<g>
														<path style="fill:#263238;" d="M402.416,454.32l-6.521-0.049c0,0-1.313-0.711-2.088-0.623
															c-0.772,0.089-3.461,0.581-3.461,0.581l-17.315-0.13c0.144-0.725,0.32-1.369,0.519-1.941
															c0.243-0.697,0.523-1.287,0.833-1.785c1.086-1.743,2.554-2.354,4.147-2.443c2.426-0.134,10.094-5.169,10.094-5.169
															s2.775-0.947,2.948-3.893c0.065-1.104,1.706-2.44,2.483-2.546c1.585-0.217,2.458,0.793,2.677,2.377l0.252,1.841
															l3.662-0.542c0,0,3.735-1.845,3.541-0.027c-0.111,1.037-0.772,5.656-1.191,9.321c-0.098,0.854-0.19,1.663-0.271,2.372
															l-0.002,0.001C402.542,453.238,402.416,454.32,402.416,454.32z"/>
													</g>
												</g>
											</g>
										</g>
									</g>
								</g>
								<g>
									<path style="fill:#E0E0E0;" d="M373.031,454.098l17.315,0.13c0,0,2.689-0.492,3.462-0.58
										c0.775-0.088,2.088,0.623,2.088,0.623l6.521,0.049c0,0,0.125-1.081,0.305-2.656l-29.171,0.492
										C373.351,452.729,373.175,453.373,373.031,454.098z"/>
								</g>
								<g>
									<g>
										<g>
											<g>
												<path style="fill:#FFFFFF;" d="M384.81,444.621c0.081-0.078,0.205-0.086,0.298-0.023c0.427,0.288,0.785,0.693,1.026,1.2
													c0.127,0.267-0.263,0.521-0.392,0.251c-0.214-0.45-0.527-0.808-0.9-1.061c-0.125-0.084-0.144-0.259-0.036-0.364
													C384.808,444.624,384.809,444.622,384.81,444.621z"/>
											</g>
										</g>
									</g>
								</g>
								<g>
									<g>
										<g>
											<g>
												<path style="fill:#FFFFFF;" d="M386.194,443.82c0.081-0.078,0.205-0.086,0.298-0.023c0.427,0.288,0.785,0.693,1.026,1.2
													c0.127,0.267-0.263,0.521-0.392,0.251c-0.215-0.45-0.527-0.808-0.9-1.061c-0.125-0.085-0.144-0.26-0.036-0.364
													C386.191,443.823,386.193,443.821,386.194,443.82z"/>
											</g>
										</g>
									</g>
								</g>
								<g>
									<g>
										<g>
											<g>
												<path style="fill:#FFFFFF;" d="M387.62,443.073c0.081-0.078,0.205-0.086,0.298-0.023c0.427,0.288,0.785,0.693,1.026,1.2
													c0.127,0.267-0.263,0.521-0.392,0.251c-0.214-0.45-0.527-0.808-0.9-1.061c-0.125-0.085-0.144-0.26-0.036-0.364
													C387.618,443.076,387.619,443.075,387.62,443.073z"/>
											</g>
										</g>
									</g>
								</g>
							</g>
						</g>
					</g>
				</g>
			</g>
			<g>
				<g>
					<g>
						<g>
							<polygon style="fill:#EBB373;" points="461.356,420.082 464.532,443.387 472.127,443.771 474.586,421.304 							"/>
						</g>
					</g>
				</g>
			</g>
			<g>
				<g>
					<g>
						<path style="fill:#263238;" d="M478.594,454.206h-16.988c0,0-0.371-0.714,0.053-2.613c0.065-0.296,0.149-0.621,0.259-0.976
							c0.006-0.018,0.01-0.035,0.016-0.053c0.159-0.526,0.341-1.172,0.535-1.87c0.778-2.844,1.694-6.56,1.694-6.56
							s2.826-6.051,6.133-4.54c2.901,1.325,2.213,5.118,2.213,5.118s0.284,2.227,2.483,4.191c1.36,1.213,2.713,2.152,3.364,3.662
							c0.122,0.282,0.218,0.582,0.286,0.907c0.008,0.039,0.016,0.081,0.021,0.121C478.797,452.321,478.789,453.173,478.594,454.206z
							"/>
					</g>
				</g>
			</g>
			<g>
				<path style="fill:#E0E0E0;" d="M461.658,451.593c-0.423,1.899-0.053,2.613-0.053,2.613h16.988
					c0.196-1.033,0.204-1.886,0.068-2.613H461.658z"/>
			</g>
			<g>
				<g>
					<g>
						<g>
							<path style="fill:#FFFFFF;" d="M471.823,443.665c-0.955-0.745-2.209-0.648-3.069,0.19c-0.231,0.225-0.586-0.129-0.355-0.355
								c1.073-1.046,2.604-1.104,3.778-0.19C472.432,443.508,472.075,443.861,471.823,443.665L471.823,443.665z"/>
						</g>
					</g>
				</g>
			</g>
			<g>
				<g>
					<g>
						<g>
							<path style="fill:#FFFFFF;" d="M472.303,445.251c-0.956-0.745-2.209-0.648-3.069,0.19c-0.231,0.225-0.586-0.129-0.354-0.355
								c1.072-1.046,2.604-1.105,3.778-0.19C472.912,445.095,472.555,445.447,472.303,445.251L472.303,445.251z"/>
						</g>
					</g>
				</g>
			</g>
			<g>
				<g>
					<g>
						<g>
							<path style="fill:#FFFFFF;" d="M472.784,446.71c-0.956-0.745-2.209-0.648-3.069,0.19c-0.231,0.226-0.586-0.129-0.354-0.354
								c1.073-1.046,2.604-1.104,3.777-0.19C473.393,446.554,473.036,446.906,472.784,446.71L472.784,446.71z"/>
						</g>
					</g>
				</g>
			</g>
			<g>
				<path style="fill:#263238;" d="M478.91,272.26l-36.672,0.311l-22.321-0.677c0,0-15.68,67.578-17.01,80.305
					c-1.33,12.727-12.762,79.739-12.762,79.739l17.358,3.811c0,0,19.734-71.651,21.158-78.537
					c1.241-6.002,14.954-44.475,18.456-54.257c0.352,2.003,0.714,4.016,1.082,6.012c0.886,9.02,3.727,37.779,4.963,48.48
					c0,0,2.687,61.132,5.805,78.885l16.334,0.028c2.156-25.202,3.54-113.724,3.54-113.724l-0.003-0.002
					C480.046,303.408,478.91,272.26,478.91,272.26z"/>
			</g>
			<path d="M429.071,281.998c-2.074,6.818-7.62,12.294-14.462,14.285c-0.369,0.107-0.212,0.685,0.159,0.577
				c7.044-2.05,12.745-7.685,14.88-14.703C429.76,281.788,429.183,281.63,429.071,281.998L429.071,281.998z"/>
			<path d="M443.884,300.861c-7.657,15.383-12.073,32.113-17.486,48.353c-5.617,16.851-10.109,34.053-14.141,51.345
				c-2.27,9.736-4.393,19.506-6.49,29.28c-0.081,0.376,0.496,0.536,0.577,0.159c3.711-17.306,7.509-34.601,12.051-51.711
				c4.475-16.86,10.017-33.397,15.391-49.986c2.997-9.25,6.275-18.422,10.614-27.139
				C444.572,300.819,444.056,300.516,443.884,300.861L443.884,300.861z"/>
			<path d="M391.551,427.057c5.533,1.4,11.066,2.8,16.599,4.201c0.373,0.095,0.533-0.482,0.159-0.577
				c-5.533-1.4-11.066-2.8-16.599-4.201C391.337,426.386,391.178,426.963,391.551,427.057L391.551,427.057z"/>
			<path d="M447.699,281.997c-0.404,5.965-0.798,11.939-1.202,17.903c-0.019,0.385-0.616,0.385-0.596,0
				c0.212-3.059,0.414-6.128,0.616-9.197c-1.472,1.135-3.194-0.24-3.675-1.761c-0.789-2.463-0.491-5.387,0.125-7.85
				c0.096-0.375,0.673-0.212,0.577,0.154c-0.433,1.732-0.616,3.502-0.491,5.282c0.058,0.904,0.144,1.943,0.568,2.77
				c0.471,0.924,1.664,1.703,2.617,0.866c0.106-0.087,0.221-0.096,0.318-0.048c0.183-2.703,0.366-5.416,0.548-8.119
				C447.122,281.612,447.719,281.612,447.699,281.997z"/>
			<path d="M465.239,283.013c-0.084,7.907,6.002,14.528,13.873,15.15c0.377,0.03,0.375-0.558,0-0.588
				c-7.552-0.596-13.366-6.995-13.285-14.562C465.831,282.635,465.243,282.634,465.239,283.013L465.239,283.013z"/>
			<path d="M450.477,301.655c2.008,16.816,3.62,33.676,5.023,50.553c1.398,16.829,2.592,33.675,3.774,50.521
				c0.67,9.554,1.338,19.109,2.036,28.661c0.028,0.382,0.626,0.385,0.598,0c-1.237-16.924-2.376-33.855-3.611-50.779
				c-1.228-16.832-2.552-33.658-4.166-50.458c-0.914-9.51-1.922-19.011-3.055-28.498
				C451.031,301.277,450.432,301.273,450.477,301.655L450.477,301.655z"/>
			<path d="M458.553,431.671c5.612,0.013,11.224,0.025,16.835,0.038c0.385,0.001,0.386-0.598,0-0.598
				c-5.612-0.013-11.224-0.025-16.835-0.038C458.167,431.071,458.167,431.67,458.553,431.671L458.553,431.671z"/>
			<path d="M469.098,360.143c2.451,0.905,5.082,0.919,7.543,0.042c0.354-0.126,0.201-0.695-0.156-0.567
				c-2.372,0.845-4.868,0.83-7.23-0.042C468.899,359.445,468.746,360.013,469.098,360.143L469.098,360.143z"/>
			<g>
				<path style="fill:#EBB373;" d="M387.304,190.824c0.157,0.39,16.917,23.35,16.917,23.35l13.59-20.933
					c0,0,11.79,13.747,11.337,13.898c-0.453,0.151-17.802,31.076-27.911,24.429c-10.109-6.647-20.108-36.717-20.108-36.717
					L387.304,190.824z"/>
				<g>
					<g>
						<g>
							<g>
								<path style="fill:#EBB373;" d="M387.272,193.454c0,0,2.563-2.385,2.633-5.278c0.07-2.894,0.897-5.185,0.8-7.34
									c-0.096-2.155-1.899,0.131-2.612,1.541c-0.713,1.41-1.535,3.001-2.508,2.294c-0.973-0.707-5.205-10.141-6.665-10.967
									c-1.46-0.827-1.253,0.913-1.253,0.913s-1.09-2.264-2.104-2.076c-0.263,0.049-0.797,0.589-0.462,1.699
									c0.753,2.496,2.604,7.652,2.604,7.652c-0.1-0.298-2.839-6.5-3.371-7.375c-0.695-1.144-1.606-1.329-2.256-0.905
									c-0.925,0.604,2.209,8.409,2.111,8.83c0,0-1.654-4.554-3.063-4.77c-1.409-0.216-0.524,2.707,0.746,5.137
									c1.164,2.227,2.864,6.901,4.267,9.05c1.729,2.648,3.484,4.038,6.416,3.589C385.487,194.999,387.272,193.454,387.272,193.454
									z"/>
							</g>
						</g>
					</g>
				</g>
				
					<path style="opacity:0.3;fill:none;stroke:#000000;stroke-width:0.5;stroke-linecap:round;stroke-linejoin:round;stroke-miterlimit:10;" d="
					M377.868,174.887c0.828,1.836,1.572,3.71,2.229,5.613"/>
				
					<path style="opacity:0.3;fill:none;stroke:#000000;stroke-width:0.5;stroke-linecap:round;stroke-linejoin:round;stroke-miterlimit:10;" d="
					M374.771,184.233c2.008-1.654,4.511-2.7,7.099-2.966"/>
				
					<path style="opacity:0.3;fill:none;stroke:#000000;stroke-width:0.5;stroke-linecap:round;stroke-linejoin:round;stroke-miterlimit:10;" d="
					M384.944,185.8c-0.891,0.574-1.573,1.467-1.892,2.477c-0.32,1.011-0.275,2.133,0.124,3.115"/>
				<path style="opacity:0.2;enable-background:new    ;" d="M404.221,214.175c0,0,1.898,3.685,1.351,6.966
					c0,0,1.114-1.537,1.036-4.193c-0.078-2.656-1.211-4.584-1.211-4.584L404.221,214.175z"/>
			</g>
			<g>
				<path style="fill:#EBB373;" d="M486.715,190.824c0,0,9.089,37.99,9.899,46.718c0.81,8.728,1,50.441,1,50.441l-9.626-0.889
					l-5.414-43.146l-10.846-50.846L486.715,190.824z"/>
				<g>
					<g>
						<g>
							<g>
								<path style="fill:#EBB373;" d="M488.676,285.883c0,0-3.015,1.779-3.705,4.59c-0.69,2.811-1.989,4.872-2.357,6.997
									c-0.368,2.125,1.883,0.28,2.882-0.945c0.999-1.224,2.144-2.602,2.942-1.702c0.798,0.899,2.907,11.022,4.155,12.142
									c1.248,1.121,1.419-0.623,1.419-0.623s0.578,2.445,1.609,2.479c0.268,0.009,0.905-0.404,0.816-1.56
									c-0.2-2.599-0.901-8.033-0.901-8.033c0.034,0.313,1.378,6.958,1.709,7.927c0.433,1.266,1.283,1.643,2.009,1.368
									c1.033-0.391-0.352-8.687-0.166-9.078c0,0,0.638,4.803,1.968,5.316c1.33,0.514,1.093-2.531,0.375-5.177
									c-0.659-2.425-1.316-7.355-2.225-9.755c-1.12-2.958-2.536-4.692-5.496-4.883
									C490.75,284.757,488.676,285.883,488.676,285.883z"/>
							</g>
						</g>
					</g>
				</g>
			</g>
			<g>
				<path style="fill:#407BFF;" d="M434.366,177.201c6.281,4.582,7.064,17.471-12.348,45.191l-15.41-16.293
					c3.993-7.051,7.461-10.503,13.39-18.892C429.353,174.209,434.366,177.201,434.366,177.201z"/>
				<path style="fill:#407BFF;" d="M434.219,176.71c4.99-0.31,24.948-2.313,45.318,1.774l-1.189,78.077
					c0,0,0.53,10.338,1.846,20.718c-21.305,8.234-48.694,5.792-62.264-2.664c0.402,0.925,6.362-65.792,12.057-96.828
					C430.083,177.298,433.722,176.741,434.219,176.71z"/>
				<path style="fill:#407BFF;" d="M479.068,178.392c0,0,8.49,1.576,10.42,11.626c1.777,9.255,6.766,29.828,6.766,29.828
					l-20.078,2.6l-4.044-24.068L479.068,178.392z"/>
				<polygon style="opacity:0.2;enable-background:new    ;" points="424.129,219.317 427.327,194.507 420.068,220.33 
					422.018,222.392 				"/>
				<polygon style="opacity:0.2;enable-background:new    ;" points="478.205,222.183 476.177,222.446 472.133,202.615 
					474.005,224.875 478.096,225.769 				"/>
				<path style="fill:none;stroke:#263238;stroke-width:0.5;stroke-linecap:round;stroke-linejoin:round;stroke-miterlimit:10;" d="
					M439.868,221.942c6.586,0.449,10.171-4.054,12.225-8.945c0.689-1.641,1.072-3.515,0.487-5.195
					c-0.585-1.68-2.385-3.017-4.115-2.601c-1.413,0.34-2.363,1.677-2.894,3.03c-1.53,3.895-0.426,8.679,2.656,11.51
					c3.082,2.831,7.942,3.527,11.694,1.673"/>
				
					<path style="opacity:0.3;fill:none;stroke:#000000;stroke-width:0.5;stroke-linecap:round;stroke-linejoin:round;stroke-miterlimit:10;" d="
					M470.971,191.638c1.033-4.726,4.03-8.99,8.126-11.563"/>
			</g>
			<g>
				<g>
					<g>
						<g>
							<path style="fill:#EBB373;" d="M461.856,176.772c0,0-0.826-5.928,2.644-16.203c0-0.011-0.537-0.278-0.537-0.289
								c0.479-1.437,0.98-2.763,1.448-3.911c0.011-0.033,0.011-0.045,0.011-0.045l-14.618,8.178
								c0.189,3.342-1.285,9.721-2.116,12.406c0,0-2.012,4.84,4.521,5.34C457.984,182.613,461.856,176.772,461.856,176.772z"/>
							<path style="opacity:0.2;" d="M450.356,169.171l8.273-1.49c-0.854,2.516-3.241,5.437-8.953,5.436
								C449.676,173.116,450.369,170.29,450.356,169.171z"/>
						</g>
						<g>
							<path style="fill:#263238;" d="M440.615,138.501c-1.819,3.22-1.308,11.415,4.003,10.133
								C449.929,147.353,443.741,132.965,440.615,138.501z"/>
							<path style="fill:#EBB373;" d="M465.833,149.413c-1.353,8.983-1.935,14.077-6.911,18.267
								c-7.486,6.303-18.036,1.305-19.397-7.929c-1.226-8.311,1.193-21.605,10.362-24.332
								C458.92,132.733,467.186,140.43,465.833,149.413z"/>
							<path style="fill:#263238;" d="M470.7,137.419c-2.782-7.975-16.032-5.008-19.741-2.772c-0.554,0.334,6.507,4.698,6.073,4.495
								l3.372,1.51c0.546-0.072,1.543,0.648,1.942,2.361c0,0-2.172,9.446,1.398,13.801c4.083-1.464,4.741-2.862,6.024-6.043
								C471.68,146.033,472.102,141.223,470.7,137.419z"/>
							<path style="fill:#EBB373;" d="M468.735,157.258c-0.927,2.262-2.817,3.874-4.687,4.605c-2.814,1.101-4.549-1.354-4.042-4.178
								c0.456-2.541,2.47-6.176,5.426-6.07C468.345,151.721,469.796,154.672,468.735,157.258z"/>
							<path style="fill:#263238;" d="M452.675,150.879c-0.082,0.924-0.638,1.625-1.243,1.566c-0.604-0.059-1.029-0.857-0.947-1.781
								c0.081-0.924,0.638-1.625,1.242-1.566C452.332,149.157,452.756,149.955,452.675,150.879z"/>
							<path style="fill:#263238;" d="M443.594,150.259c-0.081,0.924-0.638,1.625-1.242,1.566c-0.604-0.059-1.028-0.857-0.947-1.781
								c0.082-0.924,0.638-1.625,1.242-1.566C443.252,148.537,443.676,149.334,443.594,150.259z"/>
							<path style="fill:#E4873E;" d="M446.588,150.007c0,0-3.332,4.334-4.435,6.122c1.184,1.276,3.447,0.936,3.447,0.936
								L446.588,150.007z"/>
							<path style="fill:#263238;" d="M455.319,146.722c-0.145,0.045-0.309,0.012-0.429-0.099c-1.422-1.326-2.982-0.972-2.998-0.968
								c-0.233,0.056-0.47-0.087-0.528-0.32c-0.058-0.232,0.085-0.466,0.317-0.522c0.082-0.02,2.037-0.465,3.802,1.181
								c0.176,0.164,0.186,0.438,0.023,0.612C455.453,146.662,455.388,146.701,455.319,146.722z"/>
						</g>
						
							<path style="opacity:0.2;fill:none;stroke:#000000;stroke-width:0.5;stroke-linecap:round;stroke-linejoin:round;stroke-miterlimit:10;" d="
							M466.893,154.578c-0.316-0.571-1.041-0.835-1.686-0.736c-0.645,0.1-1.21,0.505-1.642,0.995
							c-0.518,0.588-0.879,1.314-1.035,2.082"/>
					</g>
					<g>
						<g>
							<path d="M454.447,157.571l-7.972,2.417c0.437,0.877,0.882,1.765,1.531,2.499c0.649,0.734,1.492,1.063,2.47,1.124
								c1.4,0.087,2.743-0.671,3.367-1.926C454.467,160.429,454.532,158.97,454.447,157.571z"/>
						</g>
						<path style="fill:#FFFFFF;" d="M447.116,159.794c0,0,0.505,1.005,0.993,1.167c0.488,0.163,6.367-1.926,6.367-1.926
							l-0.03-1.465L447.116,159.794z"/>
						<path style="fill:#DE5753;" d="M449.479,163.436c0,0,0.44-1.374,2.086-1.971c1.645-0.597,2.476-0.233,2.476-0.233
							s-0.536,1.629-2.085,2.151C450.407,163.906,449.479,163.436,449.479,163.436z"/>
					</g>
					<path style="fill:#263238;" d="M439.939,146.004c-0.079-0.024-0.151-0.072-0.208-0.141c-0.152-0.186-0.127-0.461,0.058-0.613
						c1.848-1.524,3.751-0.921,3.84-0.905c0.228,0.074,0.355,0.319,0.284,0.548c-0.071,0.228-0.311,0.354-0.539,0.283
						c-0.078-0.028-1.551-0.474-3.034,0.749C440.224,146.022,440.073,146.046,439.939,146.004z"/>
				</g>
				<g>
					<path style="fill:#263238;" d="M464.283,135.303c-1.367-3.783-4.96-6.375-8.631-6.226c-2.324,0.095-4.528,1.169-6.782,1.853
						c-2.254,0.683-4.814,0.928-6.741-0.485c-0.949-0.696-1.976-1.815-3.036-1.309c-0.711,0.34-1.026,1.332-0.914,2.179
						c0.112,0.848,0.549,1.584,0.976,2.29c-0.912-0.08-1.824-0.16-2.735-0.239c0.302,2.87,2.097,5.319,4.302,6.79
						c2.206,1.471,4.79,2.089,7.351,2.463c3.066,0.449,6.231,0.574,9.238-0.331c3.007-0.906,5.859-2.954,7.373-6.011
						L464.283,135.303z"/>
				</g>
				<g>
					<path style="fill:#263238;" d="M461.136,129.844c-1.313-1.32-3.186-2.064-5.047-2.006c-1.716,0.054-3.338,0.748-5.007,1.146
						c-1.67,0.398-3.588,0.449-4.934-0.616c-0.731-0.578-1.55-1.512-2.383-1.094c-0.633,0.317-0.681,1.213-0.479,1.891
						c0.5,1.675,2.049,2.986,3.784,3.201l16.047,2.535C463.184,133.041,462.45,131.165,461.136,129.844z"/>
				</g>
			</g>
		</g>
		<g>
			<path style="fill:#263238;" d="M446.454,251.175c-6.421,0-11.627,4.559-11.627,10.183h23.254
				C458.081,255.734,452.875,251.175,446.454,251.175z"/>
			<rect x="374.691" y="261.358" style="fill:#407BFF;" width="140.683" height="45.272"/>
			<rect x="374.691" y="261.358" style="opacity:0.2;enable-background:new    ;" width="140.683" height="45.272"/>
			<g>
				<rect x="395.595" y="268.573" style="fill:#263238;" width="101.719" height="30.842"/>
				<polygon style="fill:#407BFF;" points="393.379,303.573 402.673,454.859 489.418,454.859 497.313,306.63 				"/>
				<polygon style="opacity:0.2;enable-background:new    ;" points="393.379,303.573 402.673,454.859 489.418,454.859 
					497.313,306.63 				"/>
			</g>
			<polygon style="opacity:0.2;enable-background:new    ;" points="393.567,306.63 497.313,306.63 496.839,315.54 394.115,315.54 
							"/>
			<g>
				<path style="fill:#FFFFFF;" d="M433.885,283.572c0.656,0.717,0.984,1.605,0.984,2.662c0,0.818-0.214,1.571-0.643,2.26
					c-0.429,0.69-1.082,1.243-1.959,1.658c-0.878,0.415-1.952,0.622-3.225,0.622c-0.991,0-1.965-0.13-2.922-0.391
					c-0.958-0.262-1.772-0.633-2.441-1.115l1.266-2.491c0.536,0.402,1.155,0.713,1.859,0.934c0.703,0.222,1.423,0.332,2.16,0.332
					c0.816,0,1.459-0.157,1.929-0.472c0.469-0.315,0.703-0.76,0.703-1.337c0-1.152-0.878-1.727-2.632-1.727h-1.487v-2.151
					l2.893-3.275h-5.987v-2.612h9.845v2.11l-3.174,3.617C432.284,282.397,433.229,282.855,433.885,283.572z"/>
				<path style="fill:#FFFFFF;" d="M439.289,289.912c-0.911-0.576-1.624-1.41-2.139-2.502c-0.516-1.091-0.774-2.394-0.774-3.908
					c0-1.513,0.258-2.816,0.774-3.908c0.515-1.091,1.228-1.926,2.139-2.501c0.911-0.576,1.949-0.864,3.115-0.864
					c1.165,0,2.203,0.288,3.114,0.864c0.911,0.575,1.623,1.41,2.14,2.501c0.515,1.092,0.773,2.394,0.773,3.908
					c0,1.514-0.258,2.817-0.773,3.908c-0.517,1.092-1.229,1.926-2.14,2.502c-0.911,0.575-1.949,0.863-3.114,0.863
					C441.238,290.775,440.2,290.487,439.289,289.912z M444.423,286.918c0.488-0.737,0.733-1.875,0.733-3.416
					c0-1.54-0.245-2.679-0.733-3.415c-0.489-0.736-1.162-1.106-2.019-1.106c-0.844,0-1.51,0.369-2,1.106
					c-0.488,0.736-0.733,1.875-0.733,3.415c0,1.541,0.245,2.679,0.733,3.416c0.49,0.736,1.156,1.105,2,1.105
					C443.26,288.023,443.933,287.654,444.423,286.918z"/>
				<path style="fill:#FFFFFF;" d="M452.93,289.912c-0.911-0.576-1.624-1.41-2.139-2.502c-0.516-1.091-0.774-2.394-0.774-3.908
					c0-1.513,0.258-2.816,0.774-3.908c0.515-1.091,1.228-1.926,2.139-2.501c0.911-0.576,1.949-0.864,3.115-0.864
					c1.165,0,2.203,0.288,3.114,0.864c0.911,0.575,1.623,1.41,2.14,2.501c0.515,1.092,0.773,2.394,0.773,3.908
					c0,1.514-0.258,2.817-0.773,3.908c-0.517,1.092-1.229,1.926-2.14,2.502c-0.911,0.575-1.949,0.863-3.114,0.863
					C454.879,290.775,453.841,290.487,452.93,289.912z M458.064,286.918c0.488-0.737,0.733-1.875,0.733-3.416
					c0-1.54-0.245-2.679-0.733-3.415c-0.49-0.736-1.162-1.106-2.019-1.106c-0.844,0-1.51,0.369-2,1.106
					c-0.488,0.736-0.733,1.875-0.733,3.415c0,1.541,0.245,2.679,0.733,3.416c0.49,0.736,1.156,1.105,2,1.105
					C456.902,288.023,457.574,287.654,458.064,286.918z"/>
			</g>
			<polygon style="opacity:0.2;fill:#FFFFFF;enable-background:new    ;" points="436.013,268.573 403.975,299.415 417.93,299.415 
				450.475,268.573 			"/>
			<polygon style="opacity:0.2;fill:#FFFFFF;enable-background:new    ;" points="456.025,268.573 423.987,299.415 429.074,299.415 
				461.619,268.573 			"/>
			<polygon style="fill:none;stroke:#407BFF;stroke-miterlimit:10;" points="414.399,327.48 422.03,437.352 473.226,437.352 
				480.194,327.48 			"/>
		</g>
	</g>
</g>
<g id="Character_1">
	<g>
		<g>
			<path style="fill:#EBB373;" d="M204.288,173.45c0,0-0.289-7.44,0.953-8.458c1.243-1.017,2.611-1.167,2.611-1.167
				s6.376-10.726,7.806-9.609c0.773,0.604-0.363,3.495-3.448,8.524c0,0,3.11-0.468,2.899,1.621c0,0,2.384-0.172,2.407,2.278
				c0,0,1.792,1.192,1.279,2.863c-0.513,1.671-4.073,7.46-6.831,9.546c-0.835,0.632-1.452,0.735-2.49,0.42
				c0,0-2.526,4.971-2.621,5.302l-6.792-6.318L204.288,173.45z"/>
			
				<path style="opacity:0.3;fill:none;stroke:#000000;stroke-width:0.5;stroke-linecap:round;stroke-linejoin:round;stroke-miterlimit:10;" d="
				M208.073,163.921c1.183,0.077,2.348,0.314,3.531,0.39c0.436,0.028,1.467-0.035,1.798,0.248c0.544,0.466,0.58,0.923,0.207,1.534
				c-0.692,1.133-2.977,1.615-4.246,1.227c0.435,0.933,0.84,2.582,0.764,3.609c-0.076,1.027-0.596,2.061-1.5,2.554"/>
			
				<path style="opacity:0.3;fill:none;stroke:#000000;stroke-width:0.5;stroke-linecap:round;stroke-linejoin:round;stroke-miterlimit:10;" d="
				M217.622,170.824c-0.191,0.338-0.386,0.682-0.672,0.944c-0.286,0.262-0.682,0.435-1.063,0.357
				c-0.607-0.123-0.932-0.811-0.961-1.43c-0.04-0.854,0.32-1.719,0.956-2.292c-0.385,0.531-0.892,0.997-1.511,1.213
				c-0.62,0.216-1.361,0.145-1.858-0.284s-0.66-1.239-0.276-1.771"/>
		</g>
		<g>
			<g>
				<g>
					<g>
						<polygon style="fill:#EBB373;" points="144.238,424.414 151.251,448.187 158.721,445.773 160.064,422.297 						"/>
					</g>
				</g>
			</g>
		</g>
		<g>
			<g>
				<g>
					<g>
						<g>
							<g>
								<g>
									<g>
										<g>
											<g>
												<g>
													<g>
														<path style="fill:#263238;" d="M150.446,457.544l6.773-0.051c0,0,1.364-0.738,2.169-0.647
															c0.802,0.092,3.595,0.603,3.595,0.603l17.984-0.135c-0.149-0.753-0.332-1.422-0.539-2.016
															c-0.252-0.724-0.543-1.336-0.865-1.854c-1.128-1.81-2.653-2.446-4.307-2.537c-2.519-0.139-10.484-5.369-10.484-5.369
															s-2.883-0.984-3.062-4.043c-0.068-1.147-1.772-2.535-2.579-2.644c-1.646-0.225-2.553,0.823-2.78,2.469l-0.262,1.912
															l-3.803-0.563c0,0-3.879-1.916-3.677-0.028c0.116,1.078,0.801,5.875,1.237,9.681c0.102,0.887,0.198,1.727,0.282,2.463
															l0.002,0.001C150.316,456.42,150.446,457.544,150.446,457.544z"/>
													</g>
												</g>
											</g>
										</g>
									</g>
								</g>
								<g style="opacity:0.2;">
									<path style="fill:#FFFFFF;" d="M180.966,457.313l-17.984,0.135c0,0-2.793-0.511-3.595-0.603
										c-0.805-0.091-2.169,0.647-2.169,0.647l-6.773,0.051c0,0-0.13-1.123-0.316-2.758l30.298,0.511
										C180.634,455.891,180.817,456.56,180.966,457.313z"/>
								</g>
								<g>
									<g>
										<g>
											<g>
												<path style="fill:#407BFF;" d="M168.732,447.47c-0.084-0.081-0.213-0.089-0.309-0.024
													c-0.444,0.299-0.815,0.72-1.066,1.246c-0.132,0.277,0.273,0.541,0.407,0.261c0.223-0.468,0.547-0.84,0.935-1.102
													c0.129-0.088,0.15-0.269,0.037-0.378C168.734,447.473,168.733,447.471,168.732,447.47z"/>
											</g>
										</g>
									</g>
								</g>
								<g>
									<g>
										<g>
											<g>
												<path style="fill:#407BFF;" d="M167.295,446.638c-0.084-0.081-0.213-0.089-0.309-0.023
													c-0.444,0.299-0.815,0.72-1.066,1.246c-0.132,0.277,0.273,0.541,0.407,0.261c0.223-0.467,0.548-0.84,0.935-1.102
													c0.13-0.088,0.15-0.269,0.037-0.378C167.298,446.641,167.296,446.639,167.295,446.638z"/>
											</g>
										</g>
									</g>
								</g>
								<g>
									<g>
										<g>
											<g>
												<path style="fill:#407BFF;" d="M165.814,445.863c-0.084-0.081-0.213-0.089-0.309-0.024
													c-0.444,0.299-0.815,0.72-1.066,1.246c-0.132,0.277,0.273,0.541,0.407,0.261c0.223-0.467,0.547-0.839,0.935-1.102
													c0.129-0.088,0.15-0.27,0.037-0.378C165.816,445.865,165.815,445.864,165.814,445.863z"/>
											</g>
										</g>
									</g>
								</g>
							</g>
						</g>
					</g>
				</g>
			</g>
		</g>
		<g>
			<g>
				<g>
					<g>
						<polygon style="fill:#EBB373;" points="111.703,422.516 108.404,446.72 100.515,447.119 97.961,423.785 						"/>
					</g>
				</g>
			</g>
		</g>
		<g>
			<g>
				<g>
					<path style="fill:#263238;" d="M93.799,457.958h17.645c0,0,0.385-0.741-0.055-2.714c-0.067-0.307-0.155-0.645-0.269-1.014
						c-0.006-0.018-0.01-0.037-0.016-0.055c-0.165-0.546-0.354-1.217-0.556-1.943c-0.808-2.954-1.759-6.814-1.759-6.814
						s-2.936-6.285-6.37-4.715c-3.013,1.376-2.299,5.316-2.299,5.316s-0.295,2.313-2.579,4.353c-1.413,1.26-2.818,2.235-3.493,3.803
						c-0.126,0.293-0.226,0.605-0.297,0.943c-0.008,0.041-0.016,0.083-0.022,0.126C93.587,456,93.595,456.885,93.799,457.958z"/>
				</g>
			</g>
		</g>
		<g style="opacity:0.2;">
			<path style="fill:#FFFFFF;" d="M111.388,455.244c0.44,1.973,0.055,2.714,0.055,2.714H93.799
				c-0.203-1.073-0.212-1.958-0.071-2.714H111.388z"/>
		</g>
		<g>
			<g>
				<g>
					<g>
						<path style="fill:#407BFF;" d="M100.831,447.009c0.992-0.773,2.295-0.673,3.187,0.198c0.24,0.234,0.609-0.134,0.368-0.368
							c-1.114-1.087-2.705-1.147-3.924-0.198C100.198,446.847,100.569,447.213,100.831,447.009L100.831,447.009z"/>
					</g>
				</g>
			</g>
		</g>
		<g>
			<g>
				<g>
					<g>
						<path style="fill:#407BFF;" d="M100.332,448.657c0.993-0.773,2.295-0.673,3.187,0.198c0.24,0.234,0.609-0.134,0.368-0.368
							c-1.114-1.087-2.705-1.147-3.924-0.198C99.7,448.495,100.071,448.861,100.332,448.657L100.332,448.657z"/>
					</g>
				</g>
			</g>
		</g>
		<g>
			<g>
				<g>
					<g>
						<path style="fill:#407BFF;" d="M99.832,450.172c0.992-0.773,2.295-0.673,3.187,0.198c0.24,0.234,0.609-0.134,0.368-0.368
							c-1.114-1.087-2.705-1.147-3.923-0.198C99.2,450.01,99.571,450.376,99.832,450.172L99.832,450.172z"/>
					</g>
				</g>
			</g>
		</g>
		<g>
			<g>
				<g>
					<g>
						<g>
							<path style="fill:#263238;" d="M93.47,268.983l38.089,0.323l22.154-3.877c0,0,6.359,76.737,7.74,89.956
								c1.381,13.218,1.733,84.105,1.733,84.105l-18.24,0.431c0,0-6.536-73.123-8.014-80.275
								c-1.288-6.233-6.802-48.622-10.439-58.782c-0.366,2.081-0.741,4.171-1.124,6.244c-0.92,9.368-3.871,39.238-5.155,50.353
								c0,0-2.791,63.494-6.03,81.932l-16.965,0.029c-2.239-26.175-3.676-118.117-3.676-118.117l0.003-0.001
								C92.29,301.334,93.47,268.983,93.47,268.983z"/>
						</g>
					</g>
					<g style="opacity:0.5;">
						<path d="M145.082,279.097c1.618,7.081,5.945,12.768,11.283,14.837c0.288,0.112,0.165,0.712-0.124,0.599
							c-5.495-2.129-9.943-7.982-11.609-15.271C144.544,278.879,144.994,278.715,145.082,279.097L145.082,279.097z"/>
						<path d="M125.887,279.096c0.42,6.195,0.829,12.4,1.249,18.595c0.02,0.4,0.639,0.4,0.619,0c-0.22-3.178-0.43-6.365-0.639-9.552
							c1.529,1.179,3.317-0.25,3.817-1.828c0.819-2.558,0.51-5.595-0.13-8.153c-0.1-0.39-0.699-0.22-0.599,0.16
							c0.45,1.798,0.639,3.637,0.51,5.486c-0.06,0.939-0.15,2.018-0.59,2.878c-0.49,0.959-1.729,1.768-2.718,0.899
							c-0.11-0.09-0.23-0.1-0.33-0.05c-0.19-2.808-0.38-5.625-0.569-8.433C126.486,278.697,125.867,278.697,125.887,279.096z"/>
						<path d="M107.669,280.152c0.087,8.212-6.234,15.09-14.409,15.735c-0.392,0.031-0.39-0.58,0-0.611
							c7.844-0.619,13.882-7.265,13.798-15.124C107.054,279.759,107.665,279.758,107.669,280.152L107.669,280.152z"/>
					</g>
				</g>
				
					<rect x="137.671" y="270.709" transform="matrix(0.9958 -0.0915 0.0915 0.9958 -24.4255 14.3445)" style="opacity:0.6;" width="13.116" height="5.697"/>
				
					<rect x="109.146" y="273.119" transform="matrix(0.9992 -0.0396 0.0396 0.9992 -10.8274 4.7936)" style="opacity:0.6;" width="13.116" height="5.697"/>
				
					<rect x="123.246" y="272.155" transform="matrix(0.9958 -0.0915 0.0915 0.9958 -24.618 13.0305)" style="opacity:0.6;" width="13.116" height="5.697"/>
			</g>
			<g style="opacity:0.1;enable-background:new    ;">
				<g>
					<path style="fill:#FFFFFF;" d="M93.47,268.983l38.089,0.323l22.154-3.877c0,0,6.359,76.737,7.74,89.956
						c1.381,13.218,1.733,84.105,1.733,84.105l-18.24,0.431c0,0-6.536-73.123-8.014-80.275c-1.288-6.233-6.802-48.622-10.439-58.782
						c-0.366,2.081-0.741,4.171-1.124,6.244c-0.92,9.368-3.871,39.238-5.155,50.353c0,0-2.791,63.494-6.03,81.932l-16.965,0.029
						c-2.239-26.175-3.676-118.117-3.676-118.117l0.003-0.001C92.29,301.334,93.47,268.983,93.47,268.983z"/>
				</g>
			</g>
		</g>
		<g>
			<g>
				<g>
					<path style="fill:#EBB373;" d="M115.777,169.224c0,0,0.827-5.936-2.648-16.226c0-0.011,0.538-0.279,0.538-0.29
						c-0.48-1.439-0.982-2.767-1.451-3.916c-0.011-0.034-0.011-0.045-0.011-0.045l14.639,8.19c-0.19,3.347,1.287,9.735,2.119,12.423
						c0,0,1.912,3.453-4.63,3.953C119.552,173.679,115.777,169.224,115.777,169.224z"/>
					<path style="opacity:0.2;" d="M127.293,161.612l-8.285-1.492c0.856,2.519,3.245,5.445,8.965,5.443
						C127.973,165.563,127.28,162.732,127.293,161.612z"/>
				</g>
				<g>
					<path style="fill:#EBB373;" d="M111.794,141.827c1.355,8.996,1.937,14.097,6.921,18.293c7.496,6.312,18.061,1.306,19.424-7.94
						c1.227-8.322-1.194-21.635-10.376-24.366C118.717,125.123,110.439,132.831,111.794,141.827z"/>
					<path style="fill:#263238;" d="M125.363,122.023c-3.714-2.239-14.689,3.22-15.49,8.314c-5.934,0.903-7.057,7.084-5.142,11.829
						c1.285,3.185,5.308,10.183,8.602,11.444c3.575-4.361,1.953-18.194,1.953-18.194c0.399-1.715,1.397-2.435,1.944-2.364
						c0,0,7.045,1.359,11.248,1.359c4.203,0,5.969-1.471,5.969-1.471s5.007-1.103,2.995-6.5
						C133.726,116.477,125.363,122.023,125.363,122.023z"/>
					<path style="fill:#EBB373;" d="M108.888,149.682c0.929,2.265,2.821,3.879,4.694,4.612c2.818,1.102,3.563-1.938,3.056-4.765
						c-0.457-2.545-1.481-5.603-4.442-5.497C109.279,144.137,107.826,147.093,108.888,149.682z"/>
					<path style="fill:#263238;" d="M124.971,143.294c0.082,0.926,0.639,1.628,1.244,1.568c0.605-0.059,1.03-0.858,0.948-1.784
						c-0.082-0.926-0.639-1.628-1.244-1.568C125.314,141.57,124.889,142.369,124.971,143.294z"/>
					<path style="fill:#263238;" d="M134.064,142.673c0.082,0.926,0.639,1.628,1.244,1.568c0.605-0.06,1.03-0.858,0.948-1.784
						c-0.082-0.926-0.639-1.628-1.244-1.568C134.407,140.949,133.983,141.748,134.064,142.673z"/>
					<path style="fill:#E4873E;" d="M131.066,142.688c0,0,3.336,4.34,4.441,6.13c-1.185,1.277-3.452,0.937-3.452,0.937
						L131.066,142.688z"/>
					<path style="fill:#263238;" d="M122.323,139.132c0.145,0.045,0.31,0.012,0.429-0.099c1.425-1.328,2.987-0.973,3.002-0.969
						c0.234,0.056,0.47-0.088,0.529-0.32c0.058-0.233-0.085-0.467-0.317-0.523c-0.082-0.02-2.04-0.466-3.807,1.183
						c-0.177,0.164-0.187,0.439-0.023,0.613C122.189,139.072,122.253,139.111,122.323,139.132z"/>
					
						<path style="fill:none;stroke:#263238;stroke-width:0.5;stroke-linecap:round;stroke-linejoin:round;stroke-miterlimit:10;" d="
						M129.282,152.705c-1.5,0.144-2.731-0.502-3.993-1.517"/>
				</g>
				
					<path style="opacity:0.2;fill:none;stroke:#000000;stroke-width:0.5;stroke-linecap:round;stroke-linejoin:round;stroke-miterlimit:10;" d="
					M110.733,146.999c0.317-0.572,1.042-0.837,1.689-0.737c0.646,0.1,1.211,0.505,1.644,0.996c0.519,0.589,0.88,1.316,1.037,2.085"
					/>
			</g>
			<path style="fill:#263238;" d="M137.725,138.413c0.079-0.024,0.152-0.072,0.208-0.141c0.152-0.187,0.127-0.462-0.058-0.614
				c-1.85-1.527-3.756-0.922-3.845-0.906c-0.228,0.074-0.356,0.319-0.285,0.548c0.071,0.229,0.312,0.355,0.539,0.284
				c0.078-0.028,1.553-0.475,3.038,0.75C137.439,138.43,137.591,138.455,137.725,138.413z"/>
		</g>
		<g>
			<g>
				<polygon style="fill:#FFFFFF;" points="199.251,176.976 201.932,174.291 209.898,183.636 206.707,186.212 				"/>
				<path style="fill:#263238;" d="M146.671,175.357c0,0,1.658-2.24,2.563-1.83c5.24,2.376,26.867,18.891,26.867,18.891
					l22.668-17.104c0.176,0.487,9.305,10.884,9.305,10.884s-17.355,22.75-25.314,25.44c-7.958,2.69-33.349-10.866-33.349-10.866
					L146.671,175.357z"/>
				<path style="opacity:0.2;enable-background:new    ;" d="M176.1,192.418c0,0,1.419,3.333,1.432,6.367
					c0,0,1.569-3.664,0.659-7.945L176.1,192.418z"/>
				<path style="opacity:0.2;enable-background:new    ;" d="M152.119,202.154c0,0-4.926-11.236-4.65-11.398
					c0.276-0.162,11.405,14.624,11.405,14.624L152.119,202.154z"/>
			</g>
			<path style="fill:#FFFFFF;" d="M139.846,171.49c-5.182-0.322-24.594-0.694-45.751,3.551l4.722,67.754
				c0,0-1.38,11.414-2.747,22.194c22.128,8.552,45.275,6.78,59.37-2.003c0-0.109-2.455-7.22-3.832-20.197
				c-2.427-22.867-2.301-48.382-6.075-68.947C145.433,173.336,140.362,171.523,139.846,171.49z"/>
			<polygon style="fill:#407BFF;" points="122.883,179.119 125.448,182.971 128.811,182.794 129.732,178.357 125.685,174.03 			"/>
			<polygon style="opacity:0.2;" points="125.448,182.971 122.303,254.478 132.092,264.99 137.095,253.773 127.816,183.381 			"/>
			<polygon style="fill:#407BFF;" points="125.448,182.971 124.951,254.378 132.092,264.99 138.197,253.773 128.829,182.708 			"/>
			<path style="opacity:0.2;" d="M115.562,178.427l6.141,4.544l4.183-7.529l4.661,5.456l0.811-7.947c0,0-2.309,4.43-2.374,4.235
				c-0.065-0.195-3.061-2.952-3.061-2.952l-5.601,3.604c0,0-4.808-2.806-4.809-2.752
				C115.512,175.138,115.562,178.427,115.562,178.427z"/>
			<path style="fill:#FFFFFF;" d="M115.672,163.831l9.819,7.588l2.985-7.052l3.098,7.415l-1.424,7.705l-4.466-5.455
				c0,0-4.094,7.358-4.425,7.502c-0.332,0.144-5.768-5.942-5.768-5.942C115.273,171.802,115.452,167.963,115.672,163.831z"/>
			<path style="fill:#263238;" d="M152.445,243.149c0,0,0.758-56.06-3.211-69.622c0,0-9.728-2.178-15.431-3.737l-4.527-3.508
				c4.256,19.542,4.422,42.513-0.752,60.363c-4.202-14.747-13.136-60.092-13.136-60.092l-5.511,4.373
				c-15.176,3.307-17.642,4.29-17.642,4.29s0.572,19.103,0.731,35.613c0,5.306,4.967,28.795,4.967,32.587l-7.273,43.297
				c0.172,3.568,27.683,4.169,36.27,3.235l2.916-19.383l3.627,18.812c0,0,26.198-0.053,27.881-3.278
				C162.283,284.335,152.445,243.149,152.445,243.149z"/>
			<polygon style="opacity:0.2;enable-background:new    ;" points="115.396,166.618 109.878,170.926 108.071,196.516 
				115.392,200.723 112.143,205.302 128.613,232.155 128.525,226.644 			"/>
			<path style="opacity:0.2;enable-background:new    ;" d="M133.803,169.789l6.042,23.487l-4.627,5.048l2.978,5.048l-9.584,28.784
				l-0.088-5.511c0,0,5.575-22.652,3.66-38.988s-2.908-21.376-2.908-21.376L133.803,169.789z"/>
			
				<line style="opacity:0.2;fill:none;stroke:#000000;stroke-miterlimit:10;enable-background:new    ;" x1="128.606" y1="231.69" x2="129.699" y2="271.551"/>
			<path style="opacity:0.2;enable-background:new    ;" d="M97.859,192.074c0,0-14.542-11.537-14.479,1.336
				c0.035,7.171,8.062,42.758,12.897,46.225c4.835,3.467,9.024,4.765,13.084,0.53c3.762-3.924,17.543-27.052,17.543-27.052
				L112.7,202.026l-10.044,8.381L97.859,192.074z"/>
			<g>
				<g>
					<polygon style="fill:#263238;" points="130.376,207.874 127.217,207.874 125.389,185.96 132.204,185.96 					"/>
					<polygon style="opacity:0.5;fill:#FFFFFF;" points="130.376,207.874 127.217,207.874 125.389,185.96 132.204,185.96 					"/>
					<circle style="fill:#263238;" cx="128.796" cy="181.065" r="6.024"/>
					<circle style="opacity:0.3;fill:#FFFFFF;" cx="128.796" cy="181.065" r="6.024"/>
				</g>
				<g>
					<path style="fill:#EBB373;" d="M119.754,198.088c0,0,3.838-8.62,5.15-8.374c1.312,0.246,2.405,0.585,2.405,0.585
						s5.203-3.429,6.193-2.002s0.269,2.478,0.269,2.478s2.539-0.131,2.358,1.8c-0.181,1.931-0.515,2.734-0.515,2.734
						s1.692,0.626,1.525,2.169c-0.167,1.543-1.342,2.006-1.342,2.006s2.443,1.313,1.102,2.783c-1.341,1.47-10.336,4.257-12.534,3.55
						C122.167,205.11,119.754,198.088,119.754,198.088z"/>
					<polygon style="fill:#EBB373;" points="114.411,205.441 120.194,197.483 124.81,205.528 122.419,212.245 					"/>
				</g>
			</g>
			<polygon style="fill:#FFFFFF;" points="117.066,200.129 114.469,203.128 125.09,212.073 127.76,208.903 			"/>
			<path style="fill:#263238;" d="M92.236,175.216c0,0-9.59,3.297-9.526,16.17c0.035,7.171,4.591,43.323,9.426,46.79
				c4.835,3.467,9.847,3.968,13.907-0.267c3.762-3.924,20.336-25.664,20.336-25.664l-12.685-9.902l-11.951,11.679l-3.883-21.947
				L92.236,175.216z"/>
			<path style="opacity:0.2;enable-background:new    ;" d="M101.743,214.022c0,0-4.457,2.77-2.579,12.321
				C99.595,221.748,100.363,217.537,101.743,214.022z"/>
			<g style="opacity:0.2;enable-background:new    ;">
				<g>
					<path d="M152.234,202.033c-0.352-5.941-0.704-11.882-1.056-17.823c-0.028-0.48-0.779-0.483-0.75,0
						c0.352,5.941,0.704,11.882,1.056,17.823C151.512,202.513,152.262,202.516,152.234,202.033L152.234,202.033z"/>
				</g>
			</g>
		</g>
	</g>
</g>
</svg>
